<svg width="68" height="330" viewBox="0 0 68 330" fill="none" xmlns="http://www.w3.org/2000/svg">
<g opacity="0.3">
<mask id="path-1-outside-1_185_2404" maskUnits="userSpaceOnUse" x="-1" y="-1" width="70" height="331" fill="black">
<rect fill="white" x="-1" y="-1" width="70" height="331"/>
<path d="M67 329.081L1.54324 316.717L1.54324 300.231L67 288.029V301.363L53.1814 303.544V313.161L67 315.424V329.081ZM44.5346 311.868V304.918L18.9984 308.393L44.5346 311.868ZM67 281.42H1.54324L1.54324 264.369C1.54324 261.567 1.75873 258.928 2.18972 256.449C2.62072 253.917 3.45576 251.682 4.69486 249.742C5.88009 247.803 7.60405 246.294 9.86675 245.217C12.0756 244.085 15.0117 243.52 18.6751 243.52C21.315 243.52 23.5507 243.924 25.3824 244.732C27.1603 245.486 28.5879 246.591 29.6654 248.045C30.7429 249.446 31.4702 251.143 31.8473 253.136C32.1705 250.604 33.0056 248.476 34.3524 246.752C35.6454 245.028 37.3963 243.735 39.6051 242.873C41.814 241.957 44.4807 241.499 47.6054 241.499C50.9995 241.499 53.9356 241.957 56.4138 242.873C58.8381 243.735 60.8314 245.001 62.3938 246.671C63.9561 248.341 65.1144 250.416 65.8686 252.894C66.6229 255.318 67 258.12 67 261.298V281.42ZM56.8986 266.955V263.884C56.8986 260.705 56.0905 258.524 54.4743 257.338C52.8581 256.099 50.4877 255.48 47.363 255.48C44.8848 255.48 42.9184 255.749 41.4638 256.288C40.0092 256.827 38.9586 257.715 38.3122 258.955C37.6118 260.194 37.2616 261.864 37.2616 263.965V266.955H56.8986ZM27.7259 266.955V264.126C27.7259 261.918 27.4027 260.248 26.7562 259.116C26.0559 257.985 25.0592 257.231 23.7662 256.854C22.4732 256.423 20.9109 256.207 19.0792 256.207C17.3552 256.207 15.9276 256.53 14.7962 257.177C13.611 257.769 12.7221 258.685 12.1295 259.924C11.5368 261.11 11.2405 262.618 11.2405 264.45V266.955H27.7259ZM67.9697 215.164C67.9697 220.066 67.1077 223.945 65.3838 226.801C63.6598 229.656 61.1816 231.703 57.9492 232.942C54.7168 234.181 50.8648 234.801 46.3932 234.801H22.0692C17.5438 234.801 13.6918 234.181 10.5132 232.942C7.33468 231.703 4.91036 229.656 3.24027 226.801C1.5163 223.945 0.654319 220.066 0.654319 215.164C0.654319 210.208 1.5163 206.302 3.24027 203.446C4.91036 200.537 7.33468 198.463 10.5132 197.224C13.6918 195.985 17.5438 195.365 22.0692 195.365H46.3932C50.8648 195.365 54.7168 195.985 57.9492 197.224C61.1816 198.463 63.6598 200.537 65.3838 203.446C67.1077 206.302 67.9697 210.208 67.9697 215.164ZM57.7068 215.164C57.7068 213.655 57.3296 212.551 56.5754 211.851C55.8212 211.15 54.8514 210.692 53.6662 210.477C52.481 210.261 51.2688 210.154 50.0297 210.154H18.5135C17.2205 210.154 16.0084 210.261 14.877 210.477C13.6918 210.692 12.7221 211.15 11.9678 211.851C11.2136 212.551 10.8365 213.655 10.8365 215.164C10.8365 216.565 11.2136 217.615 11.9678 218.316C12.7221 219.016 13.6918 219.474 14.877 219.689C16.0084 219.905 17.2205 220.013 18.5135 220.013H50.0297C51.2688 220.013 52.481 219.932 53.6662 219.77C54.8514 219.555 55.8212 219.124 56.5754 218.477C57.3296 217.777 57.7068 216.672 57.7068 215.164ZM67.9697 167.652C67.9697 172.663 67.1616 176.595 65.5454 179.451C63.8753 182.252 61.4779 184.218 58.3532 185.35C55.1747 186.481 51.2958 187.047 46.7165 187.047H1.54324V172.743H48.8984C50.2452 172.743 51.5921 172.636 52.9389 172.42C54.2858 172.205 55.3902 171.747 56.2522 171.046C57.1141 170.292 57.5451 169.161 57.5451 167.652C57.5451 166.09 57.1141 164.959 56.2522 164.258C55.3902 163.558 54.2858 163.127 52.9389 162.965C51.5921 162.75 50.2452 162.642 48.8984 162.642H1.54324V148.258H46.7165C51.2958 148.258 55.1747 148.85 58.3532 150.035C61.4779 151.167 63.8753 153.133 65.5454 155.935C67.1616 158.736 67.9697 162.642 67.9697 167.652ZM67 133.155H12.2911V143.014H1.54324L1.54324 108.831H12.2911V118.609H67L67 133.155ZM67.9697 63.4821C67.9697 68.4923 67.1616 72.4251 65.5454 75.2804C63.8753 78.0819 61.4779 80.0483 58.3532 81.1796C55.1747 82.311 51.2958 82.8767 46.7165 82.8767H1.54324V68.5731H48.8984C50.2452 68.5731 51.5921 68.4654 52.9389 68.2499C54.2858 68.0344 55.3902 67.5765 56.2522 66.8761C57.1141 66.1219 57.5451 64.9905 57.5451 63.4821C57.5451 61.9197 57.1141 60.7884 56.2522 60.088C55.3902 59.3877 54.2858 58.9567 52.9389 58.795C51.5921 58.5795 50.2452 58.4718 48.8984 58.4718H1.54324V44.0875H46.7165C51.2958 44.0875 55.1747 44.6801 58.3532 45.8653C61.4779 46.9967 63.8753 48.9631 65.5454 51.7645C67.1616 54.5659 67.9697 58.4718 67.9697 63.4821ZM67.9697 17.5096C67.9697 21.604 67.2424 25.025 65.7878 27.7725C64.3332 30.5201 62.0975 32.5943 59.0805 33.995C56.0097 35.3957 52.05 36.1769 47.2014 36.3385L45.3427 23.9744C48.1441 23.9206 50.4068 23.6781 52.1308 23.2471C53.8548 22.7623 55.0939 22.1158 55.8481 21.3077C56.6023 20.4457 56.9795 19.4221 56.9795 18.2369C56.9795 16.7284 56.4677 15.7587 55.4441 15.3277C54.4204 14.8428 53.343 14.6004 52.2116 14.6004C49.5179 14.6004 47.2552 15.2469 45.4235 16.5398C43.5379 17.8328 41.6523 19.5837 39.7668 21.7925L34.8373 27.4493C32.7362 29.9275 30.3658 32.0286 27.7259 33.7525C25.0322 35.4226 21.719 36.2577 17.7862 36.2577C12.2372 36.2577 8.0081 34.6145 5.09891 31.3282C2.13585 28.0419 0.654319 23.5704 0.654319 17.9136C0.654319 14.4118 1.24693 11.6104 2.43216 9.5093C3.61738 7.35434 5.17973 5.73813 7.11918 4.66065C9.00477 3.5293 11.025 2.77506 13.18 2.39795C15.2811 1.96696 17.3013 1.72452 19.2408 1.67065L20.7762 14.1155C18.8368 14.1694 17.1667 14.3041 15.7659 14.5196C14.3113 14.6812 13.2069 15.0583 12.4527 15.6509C11.6446 16.2435 11.2405 17.1594 11.2405 18.3985C11.2405 19.7453 11.8062 20.742 12.9376 21.3885C14.0689 21.9811 15.2003 22.2774 16.3316 22.2774C18.7559 22.2774 20.7493 21.7117 22.3116 20.5804C23.8201 19.3952 25.4094 17.8598 27.0795 15.9742L31.8473 10.5598C34.2716 7.70452 37.0192 5.30713 40.09 3.36768C43.1608 1.37434 46.9589 0.377676 51.4843 0.377676C54.5551 0.377676 57.3566 1.07804 59.8886 2.47876C62.3668 3.87948 64.3332 5.87281 65.7878 8.45876C67.2424 10.9908 67.9697 14.0078 67.9697 17.5096Z"/>
</mask>
<path d="M67 329.081L66.8603 329.82L67.7528 329.989V329.081H67ZM1.54324 316.717H0.790453V317.341L1.40351 317.456L1.54324 316.717ZM1.54324 300.231L1.40528 299.491L0.790453 299.606V300.231H1.54324ZM67 288.029H67.7528V287.123L66.862 287.289L67 288.029ZM67 301.363L67.1174 302.106L67.7528 302.006V301.363H67ZM53.1814 303.544L53.0639 302.801L52.4286 302.901V303.544H53.1814ZM53.1814 313.161H52.4286V313.801L53.0597 313.904L53.1814 313.161ZM67 315.424H67.7528V314.784L67.1216 314.681L67 315.424ZM44.5346 311.868L44.4331 312.614L45.2874 312.73V311.868H44.5346ZM44.5346 304.918H45.2874V304.056L44.4331 304.172L44.5346 304.918ZM18.9984 308.393L18.8969 307.647V309.139L18.9984 308.393ZM67.1397 328.341L1.68296 315.977L1.40351 317.456L66.8603 329.82L67.1397 328.341ZM2.29602 316.717V300.231H0.790453L0.790453 316.717H2.29602ZM1.68119 300.971L67.138 288.769L66.862 287.289L1.40528 299.491L1.68119 300.971ZM66.2472 288.029V301.363H67.7528V288.029H66.2472ZM66.8826 300.619L53.0639 302.801L53.2988 304.288L67.1174 302.106L66.8826 300.619ZM52.4286 303.544V313.161H53.9341V303.544H52.4286ZM53.0597 313.904L66.8784 316.167L67.1216 314.681L53.303 312.418L53.0597 313.904ZM66.2472 315.424V329.081H67.7528V315.424H66.2472ZM45.2874 311.868V304.918H43.7818V311.868H45.2874ZM44.4331 304.172L18.8969 307.647L19.0999 309.139L44.6361 305.664L44.4331 304.172ZM18.8969 309.139L44.4331 312.614L44.6361 311.122L19.0999 307.647L18.8969 309.139ZM67 281.42V282.173H67.7528V281.42H67ZM1.54324 281.42H0.790453V282.173H1.54324V281.42ZM2.18972 256.449L2.93138 256.578L2.93184 256.576L2.18972 256.449ZM4.69486 249.742L5.32923 250.147L5.33327 250.141L5.3372 250.135L4.69486 249.742ZM9.86675 245.217L10.1904 245.896L10.2002 245.892L10.2099 245.887L9.86675 245.217ZM25.3824 244.732L25.0785 245.421L25.0884 245.425L25.3824 244.732ZM29.6654 248.045L29.0604 248.493L29.0687 248.504L29.6654 248.045ZM31.8473 253.136L31.1076 253.276L32.594 253.232L31.8473 253.136ZM34.3524 246.752L34.9456 247.216L34.9502 247.21L34.9547 247.204L34.3524 246.752ZM39.6051 242.873L39.8788 243.575L39.8862 243.572L39.8935 243.569L39.6051 242.873ZM56.4138 242.873L56.1528 243.579L56.1616 243.583L56.4138 242.873ZM62.3938 246.671L61.844 247.186L62.3938 246.671ZM65.8687 252.894L65.1485 253.113L65.1498 253.117L65.8687 252.894ZM56.8987 266.955V267.708H57.6514V266.955H56.8987ZM54.4743 257.338L54.0163 257.936L54.0227 257.941L54.0292 257.945L54.4743 257.338ZM38.3122 258.955L38.9675 259.325L38.9737 259.314L38.9796 259.303L38.3122 258.955ZM37.2616 266.955H36.5088V267.708H37.2616V266.955ZM27.7259 266.955V267.708H28.4787V266.955H27.7259ZM26.7562 259.116L27.4098 258.743L27.4032 258.731L27.3963 258.72L26.7562 259.116ZM23.7662 256.854L23.5282 257.568L23.5417 257.572L23.5554 257.576L23.7662 256.854ZM14.7962 257.177L15.1329 257.85L15.1516 257.841L15.1697 257.83L14.7962 257.177ZM12.1295 259.924L12.8029 260.261L12.8086 260.249L12.1295 259.924ZM11.2405 266.955H10.4878V267.708H11.2405V266.955ZM67 280.667H1.54324V282.173H67V280.667ZM2.29602 281.42V264.369H0.790453L0.790453 281.42H2.29602ZM2.29602 264.369C2.29602 261.606 2.50857 259.01 2.93137 256.578L1.44807 256.32C1.00889 258.846 0.790453 261.529 0.790453 264.369H2.29602ZM2.93184 256.576C3.34789 254.131 4.1503 251.993 5.32923 250.147L4.06049 249.337C2.76123 251.37 1.89354 253.703 1.44761 256.323L2.93184 256.576ZM5.3372 250.135C6.43856 248.332 8.04548 246.918 10.1904 245.896L9.54311 244.537C7.16262 245.671 5.32161 247.273 4.05252 249.35L5.3372 250.135ZM10.2099 245.887C12.2741 244.83 15.0786 244.272 18.6751 244.272V242.767C14.9448 242.767 11.8771 243.341 9.52358 244.547L10.2099 245.887ZM18.6751 244.272C21.2421 244.272 23.3679 244.666 25.0786 245.421L25.6863 244.043C23.7335 243.182 21.3879 242.767 18.6751 242.767V244.272ZM25.0884 245.425C26.7512 246.13 28.0683 247.154 29.0605 248.493L30.2703 247.597C29.1075 246.027 27.5693 244.842 25.6764 244.039L25.0884 245.425ZM29.0687 248.504C30.0642 249.798 30.7492 251.382 31.1076 253.276L32.587 252.996C32.1911 250.904 31.4216 249.094 30.2621 247.586L29.0687 248.504ZM32.594 253.232C32.903 250.811 33.6952 248.816 34.9456 247.216L33.7592 246.289C32.316 248.136 31.4381 250.397 31.1006 253.041L32.594 253.232ZM34.9547 247.204C36.1552 245.603 37.7871 244.391 39.8788 243.575L39.3315 242.172C37.0055 243.08 35.1356 244.453 33.7502 246.3L34.9547 247.204ZM39.8935 243.569C41.9875 242.7 44.5508 242.252 47.6054 242.252V240.747C44.4107 240.747 41.6404 241.214 39.3168 242.178L39.8935 243.569ZM47.6054 242.252C50.9345 242.252 53.7782 242.702 56.1528 243.579L56.6747 242.167C54.093 241.213 51.0644 240.747 47.6054 240.747V242.252ZM56.1616 243.583C58.4869 244.409 60.3737 245.614 61.844 247.186L62.9435 246.157C61.2892 244.389 59.1893 243.061 56.666 242.164L56.1616 243.583ZM61.844 247.186C63.3179 248.761 64.4233 250.73 65.1485 253.113L66.5888 252.675C65.8055 250.101 64.5943 247.922 62.9435 246.157L61.844 247.186ZM65.1498 253.117C65.8767 255.454 66.2472 258.177 66.2472 261.298H67.7528C67.7528 258.062 67.369 255.182 66.5874 252.67L65.1498 253.117ZM66.2472 261.298V281.42H67.7528V261.298H66.2472ZM57.6514 266.955V263.884H56.1459V266.955H57.6514ZM57.6514 263.884C57.6514 260.609 56.8209 258.126 54.9195 256.731L54.0292 257.945C55.3602 258.922 56.1459 260.802 56.1459 263.884H57.6514ZM54.9323 256.741C53.131 255.36 50.5697 254.727 47.363 254.727V256.233C50.4056 256.233 52.5852 256.839 54.0163 257.936L54.9323 256.741ZM47.363 254.727C44.8424 254.727 42.7755 254.999 41.2023 255.582L41.7252 256.994C43.0613 256.499 44.9272 256.233 47.363 256.233V254.727ZM41.2023 255.582C39.5935 256.178 38.3873 257.183 37.6448 258.606L38.9796 259.303C39.53 258.248 40.4249 257.475 41.7252 256.994L41.2023 255.582ZM37.6568 258.584C36.8693 259.978 36.5088 261.791 36.5088 263.965H38.0144C38.0144 261.936 38.3543 260.41 38.9675 259.325L37.6568 258.584ZM36.5088 263.965V266.955H38.0144V263.965H36.5088ZM37.2616 267.708H56.8987V266.202H37.2616V267.708ZM28.4787 266.955V264.126H26.9732V266.955H28.4787ZM28.4787 264.126C28.4787 261.867 28.152 260.041 27.4098 258.743L26.1026 259.49C26.6534 260.454 26.9732 261.969 26.9732 264.126H28.4787ZM27.3963 258.72C26.5967 257.428 25.4461 256.559 23.977 256.131L23.5554 257.576C24.6723 257.902 25.515 258.541 26.1161 259.512L27.3963 258.72ZM24.0043 256.139C22.6133 255.676 20.9658 255.454 19.0792 255.454V256.96C20.856 256.96 22.3332 257.169 23.5282 257.568L24.0043 256.139ZM19.0792 255.454C17.2652 255.454 15.6988 255.794 14.4227 256.523L15.1697 257.83C16.1563 257.267 17.4452 256.96 19.0792 256.96V255.454ZM14.4596 256.503C13.1188 257.174 12.1123 258.215 11.4503 259.6L12.8086 260.249C13.3318 259.155 14.1032 258.365 15.1329 257.85L14.4596 256.503ZM11.4561 259.588C10.7952 260.91 10.4878 262.543 10.4878 264.45H11.9933C11.9933 262.693 12.2785 261.31 12.8028 260.261L11.4561 259.588ZM10.4878 264.45V266.955H11.9933V264.45H10.4878ZM11.2405 267.708H27.7259V266.202H11.2405V267.708ZM65.3838 226.801L66.0282 227.19L65.3838 226.801ZM10.5132 232.942L10.2398 233.644L10.5132 232.942ZM3.24026 226.801L3.89012 226.421L3.8847 226.412L3.24026 226.801ZM3.24026 203.446L3.8847 203.835L3.88898 203.828L3.89312 203.821L3.24026 203.446ZM10.5132 197.224L10.7867 197.925L10.5132 197.224ZM57.9492 197.224L57.6797 197.927L57.9492 197.224ZM65.3838 203.446L64.7361 203.83L64.7393 203.835L65.3838 203.446ZM56.5754 211.851L56.0632 212.402L56.5754 211.851ZM53.6662 210.477L53.8009 209.736H53.8009L53.6662 210.477ZM14.877 210.477L15.0117 211.218L15.0179 211.216L14.877 210.477ZM11.9678 211.851L12.4801 212.402L11.9678 211.851ZM11.9678 218.316L12.4801 217.764L11.9678 218.316ZM14.877 219.689L15.0179 218.95L15.0117 218.949L14.877 219.689ZM53.6662 219.77L53.7679 220.516L53.7845 220.514L53.8009 220.511L53.6662 219.77ZM56.5754 218.477L57.0653 219.049L57.0767 219.039L57.0876 219.029L56.5754 218.477ZM67.2169 215.164C67.2169 219.99 66.3666 223.716 64.7393 226.412L66.0282 227.19C67.8488 224.174 68.7225 220.143 68.7225 215.164H67.2169ZM64.7393 226.412C63.1055 229.118 60.7621 231.058 57.6797 232.239L58.2186 233.645C61.6011 232.349 64.2142 230.194 66.0282 227.19L64.7393 226.412ZM57.6797 232.239C54.5543 233.438 50.7982 234.048 46.3932 234.048V235.554C50.9313 235.554 54.8792 234.925 58.2186 233.645L57.6797 232.239ZM46.3932 234.048H22.0692V235.554H46.3932V234.048ZM22.0692 234.048C17.6085 234.048 13.8547 233.437 10.7867 232.241L10.2398 233.644C13.5289 234.926 17.4791 235.554 22.0692 235.554V234.048ZM10.7867 232.241C7.76082 231.061 5.47163 229.125 3.89006 226.421L2.59047 227.181C4.34909 230.187 6.90854 232.345 10.2398 233.644L10.7867 232.241ZM3.8847 226.412C2.2574 223.716 1.4071 219.99 1.4071 215.164H-0.098465C-0.098465 220.143 0.775202 224.174 2.59583 227.19L3.8847 226.412ZM1.4071 215.164C1.4071 210.283 2.25803 206.53 3.8847 203.835L2.59583 203.057C0.774569 206.074 -0.098465 210.133 -0.098465 215.164H1.4071ZM3.89312 203.821C5.47612 201.064 7.76517 199.103 10.7867 197.925L10.2398 196.523C6.90419 197.823 4.34459 200.011 2.58741 203.072L3.89312 203.821ZM10.7867 197.925C13.8547 196.729 17.6085 196.118 22.0692 196.118V194.613C17.4791 194.613 13.5289 195.24 10.2398 196.523L10.7867 197.925ZM22.0692 196.118H46.3932V194.613H22.0692V196.118ZM46.3932 196.118C50.7982 196.118 54.5543 196.729 57.6797 197.927L58.2186 196.521C54.8792 195.241 50.9313 194.613 46.3932 194.613V196.118ZM57.6797 197.927C60.7578 199.107 63.1009 201.071 64.7362 203.83L66.0314 203.063C64.2187 200.004 61.6054 197.819 58.2186 196.521L57.6797 197.927ZM64.7393 203.835C66.366 206.53 67.2169 210.283 67.2169 215.164H68.7225C68.7225 210.133 67.8495 206.074 66.0282 203.057L64.7393 203.835ZM58.4595 215.164C58.4595 213.545 58.0549 212.197 57.0876 211.299L56.0632 212.402C56.6044 212.905 56.954 213.766 56.954 215.164H58.4595ZM57.0876 211.299C56.2113 210.485 55.1029 209.973 53.8009 209.736L53.5316 211.218C54.6 211.412 55.4311 211.815 56.0632 212.402L57.0876 211.299ZM53.8009 209.736C52.57 209.512 51.3127 209.401 50.0297 209.401V210.906C51.225 210.906 52.392 211.01 53.5316 211.218L53.8009 209.736ZM50.0297 209.401H18.5135V210.906H50.0297V209.401ZM18.5135 209.401C17.1789 209.401 15.9192 209.512 14.7362 209.737L15.0179 211.216C16.0976 211.011 17.2621 210.906 18.5135 210.906V209.401ZM14.7424 209.736C13.4403 209.973 12.332 210.485 11.4556 211.299L12.4801 212.402C13.1122 211.815 13.9432 211.412 15.0117 211.218L14.7424 209.736ZM11.4556 211.299C10.4883 212.197 10.0837 213.545 10.0837 215.164H11.5893C11.5893 213.766 11.9389 212.905 12.4801 212.402L11.4556 211.299ZM10.0837 215.164C10.0837 216.696 10.4987 217.979 11.4556 218.867L12.4801 217.764C11.9285 217.252 11.5893 216.434 11.5893 215.164H10.0837ZM11.4556 218.867C12.332 219.681 13.4403 220.193 14.7424 220.43L15.0117 218.949C13.9432 218.754 13.1122 218.351 12.4801 217.764L11.4556 218.867ZM14.7362 220.429C15.9192 220.654 17.1789 220.765 18.5135 220.765V219.26C17.2621 219.26 16.0976 219.156 15.0179 218.95L14.7362 220.429ZM18.5135 220.765H50.0297V219.26H18.5135V220.765ZM50.0297 220.765C51.3016 220.765 52.5478 220.682 53.7679 220.516L53.5645 219.024C52.4142 219.181 51.236 219.26 50.0297 219.26V220.765ZM53.8009 220.511C55.0895 220.277 56.1902 219.799 57.0653 219.049L56.0855 217.906C55.4521 218.449 54.6134 218.833 53.5316 219.03L53.8009 220.511ZM57.0876 219.029C58.0549 218.131 58.4595 216.783 58.4595 215.164H56.954C56.954 216.561 56.6044 217.423 56.0632 217.926L57.0876 219.029ZM65.5454 179.451L66.192 179.836L66.1963 179.829L66.2005 179.821L65.5454 179.451ZM58.3532 185.35L58.6057 186.059L58.6095 186.058L58.3532 185.35ZM1.54324 187.047H0.790453V187.8H1.54324V187.047ZM1.54324 172.743L1.54324 171.991H0.790453L0.790453 172.743H1.54324ZM52.9389 172.42L52.82 171.677L52.9389 172.42ZM56.2522 171.046L56.7269 171.631L56.7375 171.622L56.7479 171.613L56.2522 171.046ZM56.2522 164.258L56.7269 163.674L56.2522 164.258ZM52.9389 162.965L52.82 163.709L52.8346 163.711L52.8492 163.713L52.9389 162.965ZM1.54324 162.642H0.790453V163.395H1.54324V162.642ZM1.54324 148.258V147.505H0.790453V148.258H1.54324ZM58.3532 150.035L58.0902 150.741L58.097 150.743L58.3532 150.035ZM65.5454 155.935L66.1975 155.558L66.192 155.549L65.5454 155.935ZM67.2169 167.652C67.2169 172.595 66.4174 176.382 64.8903 179.08L66.2005 179.821C67.9059 176.809 68.7225 172.73 68.7225 167.652H67.2169ZM64.8988 179.065C63.3195 181.714 61.0616 183.569 58.097 184.642L58.6095 186.058C61.8943 184.868 64.4311 182.79 66.192 179.836L64.8988 179.065ZM58.1008 184.641C55.0265 185.735 51.2384 186.294 46.7165 186.294V187.8C51.3531 187.8 55.3229 187.227 58.6057 186.059L58.1008 184.641ZM46.7165 186.294H1.54324V187.8H46.7165V186.294ZM2.29602 187.047V172.743H0.790453V187.047H2.29602ZM1.54324 173.496H48.8984V171.991H1.54324L1.54324 173.496ZM48.8984 173.496C50.2856 173.496 51.6722 173.385 53.0579 173.163L52.82 171.677C51.512 171.886 50.2049 171.991 48.8984 171.991V173.496ZM53.0579 173.163C54.5056 172.932 55.7413 172.431 56.7269 171.631L55.7775 170.462C55.039 171.062 54.0659 171.477 52.82 171.677L53.0579 173.163ZM56.7479 171.613C57.8211 170.674 58.2979 169.305 58.2979 167.652H56.7924C56.7924 169.017 56.4072 169.91 55.7564 170.48L56.7479 171.613ZM58.2979 167.652C58.2979 165.96 57.8281 164.569 56.7269 163.674L55.7775 164.842C56.4002 165.348 56.7924 166.22 56.7924 167.652H58.2979ZM56.7269 163.674C55.7323 162.866 54.4853 162.393 53.0286 162.218L52.8492 163.713C54.0863 163.861 55.048 164.25 55.7775 164.842L56.7269 163.674ZM53.0578 162.222C51.6722 162 50.2856 161.889 48.8984 161.889V163.395C50.2049 163.395 51.512 163.499 52.82 163.709L53.0578 162.222ZM48.8984 161.889H1.54324V163.395H48.8984V161.889ZM2.29602 162.642L2.29602 148.258H0.790453V162.642H2.29602ZM1.54324 149.01H46.7165V147.505H1.54324V149.01ZM46.7165 149.01C51.2354 149.01 55.0196 149.596 58.0902 150.741L58.6162 149.33C55.3298 148.105 51.3561 147.505 46.7165 147.505V149.01ZM58.097 150.743C61.0616 151.817 63.3195 153.671 64.8988 156.32L66.192 155.549C64.4311 152.595 61.8943 150.517 58.6095 149.328L58.097 150.743ZM64.8934 156.311C66.4169 158.952 67.2169 162.708 67.2169 167.652H68.7225C68.7225 162.576 67.9063 158.521 66.1975 155.559L64.8934 156.311ZM67 133.155V133.908H67.7528V133.155H67ZM12.2911 133.155V132.402H11.5383V133.155H12.2911ZM12.2911 143.014V143.767H13.0439V143.014H12.2911ZM1.54324 143.014H0.790453V143.767H1.54324V143.014ZM1.54324 108.831V108.078H0.790453V108.831H1.54324ZM12.2911 108.831H13.0439V108.078H12.2911V108.831ZM12.2911 118.609H11.5383V119.362H12.2911V118.609ZM67 118.609H67.7528V117.856H67V118.609ZM67 132.402H12.2911V133.908H67V132.402ZM11.5383 133.155V143.014H13.0439V133.155H11.5383ZM12.2911 142.261H1.54324V143.767H12.2911V142.261ZM2.29602 143.014V108.831H0.790453L0.790453 143.014H2.29602ZM1.54324 109.584H12.2911V108.078H1.54324V109.584ZM11.5383 108.831V118.609H13.0439V108.831H11.5383ZM12.2911 119.362H67L67 117.856H12.2911V119.362ZM66.2472 118.609L66.2472 133.155H67.7528L67.7528 118.609H66.2472ZM65.5454 75.2804L66.192 75.6659L66.1963 75.6586L66.2005 75.6513L65.5454 75.2804ZM58.3532 81.1796L58.6057 81.8888L58.6095 81.8875L58.3532 81.1796ZM1.54324 82.8767H0.790453V83.6294H1.54324V82.8767ZM1.54324 68.5732V67.8204H0.790453V68.5732H1.54324ZM52.9389 68.2499L52.82 67.5066L52.9389 68.2499ZM56.2522 66.8761L56.7269 67.4604L56.7375 67.4517L56.7479 67.4427L56.2522 66.8761ZM56.2522 60.088L56.7269 59.5038L56.2522 60.088ZM52.9389 58.795L52.82 59.5384L52.8346 59.5407L52.8492 59.5424L52.9389 58.795ZM1.54324 58.4718H0.790453V59.2246H1.54324V58.4718ZM1.54324 44.0875V43.3347H0.790453V44.0875H1.54324ZM58.3532 45.8653L58.0902 46.5707L58.097 46.5731L58.3532 45.8653ZM65.5454 51.7645L66.1975 51.3883L66.192 51.379L65.5454 51.7645ZM67.2169 63.4821C67.2169 68.4252 66.4174 72.2118 64.8903 74.9096L66.2005 75.6513C67.9059 72.6385 68.7225 68.5594 68.7225 63.4821H67.2169ZM64.8988 74.895C63.3195 77.5441 61.0616 79.3984 58.097 80.4718L58.6095 81.8875C61.8943 80.6982 64.4311 78.6197 66.192 75.6659L64.8988 74.895ZM58.1008 80.4704C55.0265 81.5647 51.2384 82.1239 46.7165 82.1239V83.6294C51.3531 83.6294 55.3229 83.0573 58.6057 81.8888L58.1008 80.4704ZM46.7165 82.1239H1.54324V83.6294H46.7165V82.1239ZM2.29602 82.8767V68.5732H0.790453V82.8767H2.29602ZM1.54324 69.3259H48.8984V67.8204H1.54324V69.3259ZM48.8984 69.3259C50.2856 69.3259 51.6722 69.2149 53.0579 68.9932L52.82 67.5066C51.512 67.7159 50.2049 67.8204 48.8984 67.8204V69.3259ZM53.0579 68.9932C54.5056 68.7616 55.7413 68.2611 56.7269 67.4604L55.7775 66.2919C55.039 66.8918 54.0659 67.3072 52.82 67.5066L53.0579 68.9932ZM56.7479 67.4427C57.8211 66.5036 58.2979 65.1346 58.2979 63.4821H56.7924C56.7924 64.8464 56.4072 65.7402 55.7564 66.3096L56.7479 67.4427ZM58.2979 63.4821C58.2979 61.7897 57.8281 60.3985 56.7269 59.5038L55.7775 60.6723C56.4002 61.1782 56.7924 62.0498 56.7924 63.4821H58.2979ZM56.7269 59.5038C55.7323 58.6957 54.4853 58.2224 53.0286 58.0476L52.8492 59.5424C54.0863 59.6909 55.048 60.0796 55.7775 60.6723L56.7269 59.5038ZM53.0578 58.0517C51.6722 57.83 50.2856 57.719 48.8984 57.719V59.2246C50.2049 59.2246 51.512 59.3291 52.82 59.5384L53.0578 58.0517ZM48.8984 57.719H1.54324V59.2246H48.8984V57.719ZM2.29602 58.4718V44.0875H0.790453V58.4718H2.29602ZM1.54324 44.8402H46.7165V43.3347H1.54324V44.8402ZM46.7165 44.8402C51.2354 44.8402 55.0196 45.4257 58.0902 46.5706L58.6162 45.16C55.3298 43.9345 51.3561 43.3347 46.7165 43.3347V44.8402ZM58.097 46.5731C61.0616 47.6465 63.3195 49.5009 64.8988 52.15L66.192 51.379C64.4311 48.4253 61.8943 46.3468 58.6095 45.1575L58.097 46.5731ZM64.8934 52.1407C66.4169 54.7815 67.2169 58.5376 67.2169 63.4821H68.7225C68.7225 58.406 67.9063 54.3504 66.1975 51.3883L64.8934 52.1407ZM65.7878 27.7726L66.4531 28.1248L65.7878 27.7726ZM59.0805 33.995L59.393 34.6799L59.3975 34.6778L59.0805 33.995ZM47.2013 36.3385L46.4569 36.4504L46.5566 37.1132L47.2264 37.0909L47.2013 36.3385ZM45.3427 23.9744L45.3282 23.2218L44.4708 23.2383L44.5983 24.0863L45.3427 23.9744ZM52.1308 23.2471L52.3134 23.9774L52.324 23.9748L52.3346 23.9718L52.1308 23.2471ZM55.8481 21.3077L56.3984 21.8213L56.4067 21.8125L56.4146 21.8034L55.8481 21.3077ZM55.4441 15.3277L55.1218 16.008L55.1367 16.0151L55.1519 16.0215L55.4441 15.3277ZM45.4235 16.5398L45.8493 17.1607L45.8576 17.1548L45.4235 16.5398ZM39.7668 21.7925L40.3343 22.2871L40.3393 22.2813L39.7668 21.7925ZM34.8373 27.4493L34.2697 26.9547L34.2631 26.9625L34.8373 27.4493ZM27.7259 33.7525L28.1226 34.3923L28.1301 34.3877L28.1376 34.3828L27.7259 33.7525ZM5.09892 31.3282L5.66259 30.8292L5.658 30.8241L5.09892 31.3282ZM2.43216 9.50931L3.08785 9.87918L3.09176 9.87207L2.43216 9.50931ZM7.11918 4.66064L7.48477 5.3187L7.49573 5.31262L7.50648 5.30615L7.11918 4.66064ZM13.18 2.39795L13.3098 3.13947L13.3205 3.13757L13.3313 3.13538L13.18 2.39795ZM19.2408 1.67065L19.9879 1.57846L19.9041 0.899139L19.2199 0.918152L19.2408 1.67065ZM20.7762 14.1155L20.7971 14.868L21.6247 14.845L21.5233 14.0233L20.7762 14.1155ZM15.7659 14.5196L15.8491 15.2678L15.8648 15.266L15.8804 15.2636L15.7659 14.5196ZM12.4527 15.6509L12.8979 16.258L12.908 16.2506L12.9178 16.2429L12.4527 15.6509ZM12.9376 21.3885L12.5641 22.0421L12.576 22.0489L12.5883 22.0553L12.9376 21.3885ZM22.3116 20.5804L22.7531 21.1901L22.7651 21.1814L22.7767 21.1723L22.3116 20.5804ZM27.0795 15.9742L27.643 16.4733L27.6444 16.4716L27.0795 15.9742ZM31.8473 10.5598L32.4123 11.0574L32.4211 11.0471L31.8473 10.5598ZM40.09 3.36768L40.492 4.00418L40.4999 3.99908L40.09 3.36768ZM59.8886 2.47876L60.2591 1.82339L60.253 1.82004L59.8886 2.47876ZM65.7878 8.45877L65.1317 8.82782L65.1351 8.83374L65.7878 8.45877ZM67.2169 17.5096C67.2169 21.5187 66.5044 24.8102 65.1225 27.4203L66.4531 28.1248C67.9805 25.2397 68.7225 21.6892 68.7225 17.5096H67.2169ZM65.1225 27.4203C63.7504 30.0122 61.6425 31.9755 58.7635 33.3122L59.3975 34.6778C62.5525 33.213 64.9161 31.028 66.4531 28.1248L65.1225 27.4203ZM58.7681 33.3101C55.8181 34.6557 51.9656 35.4265 47.1763 35.5861L47.2264 37.0909C52.1344 36.9272 56.2014 36.1357 59.393 34.6799L58.7681 33.3101ZM47.9458 36.2266L46.0871 23.8625L44.5983 24.0863L46.4569 36.4504L47.9458 36.2266ZM45.3572 24.7271C48.1868 24.6727 50.5123 24.4277 52.3134 23.9774L51.9482 22.5168C50.3014 22.9286 48.1015 23.1685 45.3282 23.2218L45.3572 24.7271ZM52.3346 23.9718C54.1171 23.4705 55.5087 22.7746 56.3984 21.8213L55.2978 20.794C54.679 21.457 53.5925 22.054 51.927 22.5225L52.3346 23.9718ZM56.4146 21.8034C57.2934 20.799 57.7322 19.5975 57.7322 18.2369H56.2267C56.2267 19.2467 55.9112 20.0923 55.2816 20.812L56.4146 21.8034ZM57.7322 18.2369C57.7322 17.4038 57.5918 16.653 57.2614 16.0269C56.9231 15.3859 56.4061 14.916 55.7362 14.6339L55.1519 16.0215C55.5056 16.1704 55.7563 16.4008 55.9299 16.7296C56.1112 17.0732 56.2267 17.5614 56.2267 18.2369H57.7322ZM55.7663 14.6474C54.6421 14.1148 53.4546 13.8476 52.2116 13.8476V15.3531C53.2314 15.3531 54.1988 15.5708 55.1218 16.008L55.7663 14.6474ZM52.2116 13.8476C49.3944 13.8476 46.9719 14.5254 44.9894 15.9248L45.8576 17.1548C47.5385 15.9684 49.6414 15.3531 52.2116 15.3531V13.8476ZM44.9978 15.919C43.0453 17.2578 41.1118 19.0575 39.1942 21.3038L40.3393 22.2813C42.1929 20.1099 44.0305 18.4078 45.8492 17.1607L44.9978 15.919ZM39.1992 21.298L34.2698 26.9547L35.4048 27.9438L40.3343 22.2871L39.1992 21.298ZM34.2631 26.9625C32.2076 29.387 29.8915 31.4392 27.3143 33.1223L28.1376 34.3828C30.84 32.6179 33.2649 30.468 35.4115 27.9361L34.2631 26.9625ZM27.3293 33.1128C24.7804 34.6931 21.6125 35.5049 17.7862 35.5049V37.0105C21.8255 37.0105 25.2841 36.1522 28.1226 34.3923L27.3293 33.1128ZM17.7862 35.5049C12.3916 35.5049 8.39281 33.9134 5.66257 30.8293L4.53526 31.8272C7.62339 35.3156 12.0828 37.0105 17.7862 37.0105V35.5049ZM5.658 30.8241C2.85133 27.7113 1.4071 23.4377 1.4071 17.9136H-0.098465C-0.098465 23.7031 1.42037 28.3726 4.53983 31.8323L5.658 30.8241ZM1.4071 17.9136C1.4071 14.4867 1.98863 11.8277 3.08781 9.87915L1.7765 9.13943C0.505234 11.393 -0.098465 14.337 -0.098465 17.9136H1.4071ZM3.09176 9.87207C4.21637 7.82733 5.68233 6.32007 7.48477 5.3187L6.7536 4.00259C4.67712 5.15619 3.0184 6.88135 1.77256 9.14651L3.09176 9.87207ZM7.50648 5.30615C9.31326 4.22208 11.2463 3.50058 13.3098 3.13947L13.0502 1.65643C10.8038 2.04956 8.69627 2.83652 6.73188 4.01514L7.50648 5.30615ZM13.3313 3.13538C15.3938 2.71228 17.3704 2.47568 19.2617 2.42316L19.2199 0.918152C17.2323 0.973358 15.1683 1.22162 13.0287 1.66052L13.3313 3.13538ZM18.4937 1.76282L20.0291 14.2077L21.5233 14.0233L19.9879 1.57846L18.4937 1.76282ZM20.7553 13.363C18.7951 13.4175 17.0921 13.5539 15.6515 13.7755L15.8804 15.2636C17.2412 15.0542 18.8784 14.9213 20.7971 14.868L20.7553 13.363ZM15.6828 13.7714C14.1567 13.9409 12.8957 14.3455 11.9876 15.059L12.9178 16.2429C13.5182 15.7711 14.466 15.4214 15.8491 15.2678L15.6828 13.7714ZM12.0075 15.0439C10.9601 15.812 10.4878 16.983 10.4878 18.3985H11.9933C11.9933 17.3358 12.3291 16.675 12.8979 16.258L12.0075 15.0439ZM10.4878 18.3985C10.4878 20.0042 11.1886 21.2561 12.5641 22.0421L13.311 20.7349C12.4238 20.2279 11.9933 19.4864 11.9933 18.3985H10.4878ZM12.5883 22.0553C13.8133 22.697 15.0637 23.0302 16.3316 23.0302V21.5246C15.3369 21.5246 14.3245 21.2652 13.2869 20.7216L12.5883 22.0553ZM16.3316 23.0302C18.8734 23.0302 21.0327 22.4359 22.7531 21.1901L21.8701 19.9707C20.4659 20.9875 18.6385 21.5246 16.3316 21.5246V23.0302ZM22.7767 21.1723C24.3297 19.9521 25.9516 18.3829 27.643 16.4733L26.5159 15.475C24.8671 17.3366 23.3104 18.8382 21.8465 19.9885L22.7767 21.1723ZM27.6444 16.4716L32.4123 11.0573L31.2823 10.0623L26.5145 15.4767L27.6444 16.4716ZM32.4211 11.0471C34.7976 8.24808 37.4877 5.90158 40.492 4.00415L39.688 2.7312C36.5507 4.71268 33.7456 7.16095 31.2735 10.0726L32.4211 11.0471ZM40.4999 3.99908C43.4227 2.10184 47.07 1.13046 51.4843 1.13046V-0.375122C46.8479 -0.375122 42.899 0.646851 39.6801 2.73627L40.4999 3.99908ZM51.4843 1.13046C54.4357 1.13046 57.1106 1.80225 59.5243 3.13748L60.253 1.82004C57.6026 0.353821 54.6745 -0.375122 51.4843 -0.375122V1.13046ZM59.5182 3.13409C61.8717 4.46432 63.7415 6.35629 65.1317 8.82782L66.4439 8.08969C64.925 5.38934 62.862 3.29465 60.2591 1.82343L59.5182 3.13409ZM65.1351 8.83374C66.5122 11.2309 67.2169 14.1131 67.2169 17.5096H68.7225C68.7225 13.9024 67.9727 10.7507 66.4406 8.08377L65.1351 8.83374Z" fill="#8BC067" mask="url(#path-1-outside-1_185_2404)"/>
</g>
</svg>
