<svg width="80" height="80" viewBox="0 0 80 80" fill="none" xmlns="http://www.w3.org/2000/svg">
<circle cx="40" cy="40" r="40" fill="#8BC067"/>
<path fill-rule="evenodd" clip-rule="evenodd" d="M45.4818 52.0608C44.6044 52.3843 43.6408 52.3969 42.7551 52.0963L45.3252 58.09L47.7061 53.1706L52.9347 54.8924L49.5949 47.1035C49.2553 47.1838 48.9458 47.3584 48.7029 47.6068C48.46 47.8551 48.2936 48.1669 48.2234 48.5055L48.0873 49.1162C47.9452 49.7873 47.6308 50.4108 47.1745 50.9266C46.7181 51.4424 46.1351 51.833 45.4818 52.0608ZM30.2663 47.1035L26.9262 54.8924L32.1549 53.1706L34.5363 58.09L37.1063 52.0964C36.559 52.2786 35.979 52.3447 35.4042 52.2906C34.8294 52.2364 34.2724 52.0632 33.7696 51.7822C33.2668 51.5011 32.8293 51.1185 32.4855 50.6593C32.1418 50.2 31.8994 49.6742 31.7743 49.1162L31.6383 48.5055C31.568 48.1668 31.4016 47.855 31.1586 47.6067C30.9156 47.3584 30.606 47.1838 30.2663 47.1035ZM39.9306 28.4098C38.2932 28.4098 36.6926 28.8904 35.3312 29.7909C33.9697 30.6914 32.9086 31.9713 32.282 33.4688C31.6554 34.9663 31.4914 36.6141 31.8109 38.2038C32.1303 39.7935 32.9187 41.2538 34.0765 42.3999C35.2342 43.546 36.7093 44.3266 38.3152 44.6429C39.9211 44.9591 41.5857 44.7969 43.0985 44.1766C44.6112 43.5564 45.9042 42.5061 46.8139 41.1584C47.7236 39.8108 48.2093 38.2263 48.2093 36.6055C48.2094 35.5292 47.9953 34.4635 47.5792 33.4692C47.1632 32.4748 46.5534 31.5713 45.7847 30.8103C45.0159 30.0492 44.1032 29.4456 43.0988 29.0337C42.0943 28.6218 41.0178 28.4098 39.9306 28.4098ZM44.7846 34.5853L39.8815 40.2474C39.7648 40.3964 39.6165 40.5181 39.4472 40.6042C39.2778 40.6903 39.0914 40.7386 38.9012 40.7456C38.711 40.7527 38.5215 40.7184 38.3461 40.6451C38.1707 40.5719 38.0136 40.4614 37.886 40.3216L35.0968 37.2462C34.9826 37.1206 34.8945 36.9739 34.8376 36.8146C34.7806 36.6553 34.7559 36.4864 34.7649 36.3176C34.7738 36.1488 34.8163 35.9835 34.8899 35.8309C34.9634 35.6784 35.0666 35.5417 35.1935 35.4286C35.3204 35.3156 35.4685 35.2284 35.6295 35.172C35.7905 35.1156 35.961 35.0912 36.1315 35.1C36.302 35.1089 36.4691 35.151 36.6232 35.2238C36.7773 35.2966 36.9154 35.3987 37.0296 35.5243L38.831 37.5102L42.8112 32.9136C42.9221 32.7853 43.0575 32.68 43.2095 32.6035C43.3615 32.527 43.5273 32.4809 43.6974 32.4678C43.8674 32.4547 44.0384 32.4749 44.2005 32.5273C44.3627 32.5796 44.5128 32.663 44.6424 32.7728C44.772 32.8826 44.8784 33.0166 44.9557 33.1671C45.033 33.3176 45.0796 33.4817 45.0928 33.65C45.106 33.8183 45.0856 33.9876 45.0327 34.1481C44.9798 34.3086 44.8955 34.457 44.7846 34.5853ZM54.8158 34.3644C54.7353 33.871 54.5267 33.4069 54.2105 33.0173C53.8943 32.6277 53.4814 32.3262 53.012 32.1421L52.4281 31.9035C51.8152 31.659 51.3026 31.2183 50.9722 30.6518C50.6418 30.0852 50.5126 29.4254 50.6053 28.7777L50.6885 28.1576C50.7548 27.6637 50.694 27.1612 50.5118 26.6967C50.3296 26.2322 50.0319 25.8207 49.6463 25.5005C49.2607 25.1802 48.7996 24.9615 48.3059 24.8646C47.8121 24.7677 47.3017 24.7958 46.8218 24.9462L46.2191 25.135C45.5908 25.3377 44.912 25.3263 44.291 25.1025C43.67 24.8787 43.1426 24.4555 42.793 23.9003L42.4543 23.3727C42.1844 22.9521 41.8116 22.6057 41.3704 22.3658C40.9292 22.1258 40.434 22 39.9306 22C39.4272 22 38.932 22.1258 38.4908 22.3658C38.0496 22.6057 37.6768 22.9521 37.4069 23.3727L37.0682 23.9003C36.7185 24.4555 36.1911 24.8788 35.5701 25.1025C34.949 25.3263 34.2701 25.3376 33.6418 25.1348L33.0395 24.9462C32.5596 24.7958 32.0491 24.7677 31.5554 24.8646C31.0616 24.9616 30.6006 25.1803 30.215 25.5006C29.8294 25.8209 29.5317 26.2324 29.3495 26.6969C29.1674 27.1614 29.1067 27.664 29.173 28.1579L29.2563 28.7779C29.3489 29.4256 29.2197 30.0854 28.8893 30.652C28.5589 31.2185 28.0463 31.6592 27.4334 31.9038L26.8494 32.1424C26.3841 32.3325 25.9748 32.6358 25.6594 33.0241C25.3441 33.4125 25.1329 33.8735 25.0455 34.3642C24.958 34.8549 24.9971 35.3595 25.1592 35.8313C25.3213 36.303 25.601 36.7266 25.9725 37.0628L26.4389 37.4849C26.9305 37.9221 27.2599 38.5098 27.3747 39.154C27.4895 39.7983 27.3829 40.462 27.0721 41.0394L26.7797 41.5936C26.5467 42.0353 26.4302 42.5281 26.4408 43.0263C26.4515 43.5245 26.589 44.012 26.8407 44.4435C27.0924 44.8751 27.4501 45.2367 27.8806 45.495C28.3111 45.7532 28.8005 45.8997 29.3034 45.9209L29.9346 45.9473C30.5951 45.9695 31.229 46.2101 31.7353 46.6306C32.2415 47.0511 32.5909 47.6273 32.7278 48.2674L32.8638 48.8781C32.9721 49.3647 33.2028 49.8164 33.5345 50.1912C33.8661 50.566 34.288 50.8519 34.761 51.0223C35.2341 51.1927 35.7429 51.2421 36.2403 51.166C36.7378 51.0899 37.2078 50.8907 37.6067 50.5868L38.1075 50.2055C38.6278 49.8022 39.2697 49.583 39.9306 49.583C40.5915 49.583 41.2333 49.8022 41.7537 50.2055L42.2544 50.5868C42.6534 50.8907 43.1234 51.0899 43.6208 51.166C44.1183 51.2421 44.6271 51.1926 45.1001 51.0222C45.5731 50.8518 45.995 50.566 46.3267 50.1911C46.6584 49.8163 46.8891 49.3647 46.9974 48.8781L47.1335 48.2674C47.2703 47.6273 47.6196 47.051 48.1259 46.6305C48.6322 46.21 49.2662 45.9694 49.9267 45.9473L50.5576 45.9208C51.0606 45.8997 51.55 45.7532 51.9805 45.495C52.411 45.2368 52.7687 44.8751 53.0204 44.4436C53.2721 44.012 53.4097 43.5246 53.4203 43.0264C53.431 42.5282 53.3145 42.0354 53.0815 41.5937L52.7891 41.0393C52.4783 40.462 52.3717 39.7982 52.4865 39.1539C52.6012 38.5097 52.9307 37.922 53.4222 37.4847L53.8885 37.0627C54.2659 36.7309 54.5498 36.3078 54.7123 35.8348C54.8749 35.3617 54.9105 34.8551 54.8158 34.3644ZM39.9306 45.9052C38.0724 45.9052 36.256 45.3597 34.7111 44.3378C33.1661 43.3159 31.9619 41.8634 31.2509 40.164C30.5398 38.4646 30.3538 36.5947 30.7163 34.7906C31.0788 32.9866 31.9736 31.3294 33.2876 30.0288C34.6015 28.7282 36.2755 27.8425 38.098 27.4837C39.9204 27.1249 41.8094 27.3091 43.5261 28.0131C45.2427 28.717 46.71 29.9091 47.7422 31.4385C48.7745 32.968 49.3254 34.7661 49.3254 36.6055C49.3252 39.0719 48.3353 41.4373 46.5735 43.1813C44.8116 44.9253 42.4221 45.9051 39.9306 45.9052Z" fill="white"/>
</svg>
