<svg width="17" height="15" viewBox="0 0 17 15" fill="none" xmlns="http://www.w3.org/2000/svg">
<path d="M6.80937 1.24394C6.80937 1.0925 6.93257 0.969305 7.08401 0.969305H9.4588C9.61024 0.969305 9.73344 1.0925 9.73344 1.24394V1.86591H10.7027V1.24394C10.7027 0.558029 10.1447 0 9.4588 0H7.08401C6.39809 0 5.84006 0.558029 5.84006 1.24394V1.86591H6.80937V1.24394ZM9.85057 9.02236V9.64879C9.85056 9.75061 9.8185 9.84984 9.75891 9.93241C9.69932 10.015 9.61525 10.0767 9.51861 10.1088L8.4241 10.4721C8.32497 10.505 8.21787 10.505 8.11874 10.4721L7.02423 10.1088C6.92759 10.0767 6.84351 10.015 6.78393 9.93241C6.72434 9.84985 6.69227 9.75061 6.69228 9.64879V9.02236L1.51153 7.72717C0.923683 7.58023 0.407367 7.28058 0 6.87706V14.0307C0 14.566 0.433958 15 0.969305 15H15.5735C16.1089 15 16.5428 14.566 16.5428 14.0307V6.87706C16.1354 7.28058 15.6191 7.58023 15.0313 7.72717L9.85057 9.02236ZM15.3231 13.2956C15.3231 13.5633 15.1061 13.7803 14.8384 13.7803H12.6494C12.3818 13.7803 12.1648 13.5633 12.1648 13.2956C12.1648 13.028 12.3818 12.811 12.6494 12.811H14.8384C15.1061 12.811 15.3231 13.028 15.3231 13.2956Z" fill="#C5C5C5"/>
<path d="M15.5735 2.83521H0.969305C0.433958 2.83521 0 3.26916 0 3.80451V4.54981C0 5.6079 0.720097 6.5302 1.74659 6.7868L6.69225 8.02322V7.82309C6.69225 7.55543 6.90924 7.33844 7.1769 7.33844H9.36591C9.63357 7.33844 9.85057 7.55543 9.85057 7.82309V8.02322L14.7962 6.7868C15.8227 6.5302 16.5428 5.6079 16.5428 4.54981V3.80451C16.5428 3.26916 16.1089 2.83521 15.5735 2.83521ZM8.88126 9.29902V8.30774H7.66155V9.29902L8.27141 9.50144L8.88126 9.29902Z" fill="#C5C5C5"/>
</svg>
