<svg width="15" height="15" viewBox="0 0 15 15" fill="none" xmlns="http://www.w3.org/2000/svg">
<path d="M3.75 15H5.24414C5.28299 15 5.32025 14.9846 5.34772 14.9571C5.37519 14.9296 5.39062 14.8924 5.39062 14.8535V11.8475C5.39062 11.7791 5.34284 11.7214 5.27645 11.7047C5.06578 11.6521 4.91171 11.457 4.92237 11.2276C4.93412 10.9754 5.15127 10.7812 5.40375 10.7812H9.59619C9.84867 10.7812 10.0658 10.9754 10.0776 11.2276C10.0883 11.457 9.93416 11.6521 9.72349 11.7047C9.6571 11.7213 9.60932 11.7791 9.60932 11.8475V14.8535C9.60932 14.8924 9.62475 14.9296 9.65222 14.9571C9.67969 14.9846 9.71695 15 9.7558 15H11.1035C11.1843 15 11.2499 14.9346 11.2499 14.8537V2.8125C11.2499 2.5536 11.0401 2.34375 10.7812 2.34375H4.21875C3.95985 2.34375 3.75 2.5536 3.75 2.8125V15ZM9.14062 4.21875C9.14062 3.95977 9.35039 3.75 9.60938 3.75C9.86836 3.75 10.0781 3.95977 10.0781 4.21875V4.6875C10.0781 4.94648 9.86836 5.15625 9.60938 5.15625C9.35039 5.15625 9.14062 4.94648 9.14062 4.6875V4.21875ZM9.14062 6.5625C9.14062 6.30352 9.35039 6.09375 9.60938 6.09375C9.86836 6.09375 10.0781 6.30352 10.0781 6.5625V7.03125C10.0781 7.29023 9.86836 7.5 9.60938 7.5C9.35039 7.5 9.14062 7.29023 9.14062 7.03125V6.5625ZM9.14062 8.90625C9.14062 8.64727 9.35039 8.4375 9.60938 8.4375C9.86836 8.4375 10.0781 8.64727 10.0781 8.90625V9.375C10.0781 9.63398 9.86836 9.84375 9.60938 9.84375C9.35039 9.84375 9.14062 9.63398 9.14062 9.375V8.90625ZM7.03125 4.21875C7.03125 3.95977 7.24102 3.75 7.5 3.75C7.75898 3.75 7.96875 3.95977 7.96875 4.21875V4.6875C7.96875 4.94648 7.75898 5.15625 7.5 5.15625C7.24102 5.15625 7.03125 4.94648 7.03125 4.6875V4.21875ZM7.03125 6.5625C7.03125 6.30352 7.24102 6.09375 7.5 6.09375C7.75898 6.09375 7.96875 6.30352 7.96875 6.5625V7.03125C7.96875 7.29023 7.75898 7.5 7.5 7.5C7.24102 7.5 7.03125 7.29023 7.03125 7.03125V6.5625ZM7.03125 8.90625C7.03125 8.64727 7.24102 8.4375 7.5 8.4375C7.75898 8.4375 7.96875 8.64727 7.96875 8.90625V9.375C7.96875 9.63398 7.75898 9.84375 7.5 9.84375C7.24102 9.84375 7.03125 9.63398 7.03125 9.375V8.90625ZM4.92188 4.21875C4.92188 3.95977 5.13164 3.75 5.39062 3.75C5.64961 3.75 5.85938 3.95977 5.85938 4.21875V4.6875C5.85938 4.94648 5.64961 5.15625 5.39062 5.15625C5.13164 5.15625 4.92188 4.94648 4.92188 4.6875V4.21875ZM4.92188 6.5625C4.92188 6.30352 5.13164 6.09375 5.39062 6.09375C5.64961 6.09375 5.85938 6.30352 5.85938 6.5625V7.03125C5.85938 7.29023 5.64961 7.5 5.39062 7.5C5.13164 7.5 4.92188 7.29023 4.92188 7.03125V6.5625ZM4.92188 8.90625C4.92188 8.64727 5.13164 8.4375 5.39062 8.4375C5.64961 8.4375 5.85938 8.64727 5.85938 8.90625V9.375C5.85938 9.63398 5.64961 9.84375 5.39062 9.84375C5.13164 9.84375 4.92188 9.63398 4.92188 9.375V8.90625Z" fill="#C5C5C5"/>
<path d="M6.47461 15H8.52539C8.56424 15 8.6015 14.9846 8.62897 14.9571C8.65644 14.9296 8.67188 14.8924 8.67188 14.8535V11.8652C8.67188 11.8264 8.65644 11.7891 8.62897 11.7617C8.6015 11.7342 8.56424 11.7188 8.52539 11.7188H6.47461C6.43576 11.7188 6.3985 11.7342 6.37103 11.7617C6.34356 11.7891 6.32812 11.8264 6.32812 11.8652V14.8535C6.32812 14.8924 6.34356 14.9296 6.37103 14.9571C6.3985 14.9846 6.43576 15 6.47461 15ZM10.0781 0.46875C10.0781 0.209854 9.86827 0 9.60938 0H5.39062C5.13173 0 4.92188 0.209854 4.92188 0.46875V1.25977C4.92188 1.279 4.92566 1.29805 4.93303 1.31582C4.94039 1.3336 4.95118 1.34974 4.96478 1.36335C4.97838 1.37695 4.99453 1.38774 5.0123 1.3951C5.03007 1.40246 5.04912 1.40625 5.06836 1.40625H9.93164C9.95088 1.40625 9.96993 1.40246 9.9877 1.3951C10.0055 1.38774 10.0216 1.37695 10.0352 1.36335C10.0488 1.34974 10.0596 1.3336 10.067 1.31582C10.0743 1.29805 10.0781 1.279 10.0781 1.25977V0.46875ZM14.5312 5.39062H12.334C12.2951 5.39062 12.2579 5.40606 12.2304 5.43353C12.2029 5.461 12.1875 5.49826 12.1875 5.53711V14.8535C12.1875 14.8924 12.2029 14.9296 12.2304 14.9571C12.2579 14.9846 12.2951 15 12.334 15H14.5312C14.7901 15 15 14.7901 15 14.5312V5.85938C15 5.60048 14.7901 5.39062 14.5312 5.39062ZM14.0625 12.4219C14.0625 12.6809 13.8527 12.8906 13.5938 12.8906C13.3348 12.8906 13.125 12.6809 13.125 12.4219V11.9531C13.125 11.6941 13.3348 11.4844 13.5938 11.4844C13.8527 11.4844 14.0625 11.6941 14.0625 11.9531V12.4219ZM14.0625 10.3125C14.0625 10.5715 13.8527 10.7812 13.5938 10.7812C13.3348 10.7812 13.125 10.5715 13.125 10.3125V9.84375C13.125 9.58477 13.3348 9.375 13.5938 9.375C13.8527 9.375 14.0625 9.58477 14.0625 9.84375V10.3125ZM14.0625 8.20312C14.0625 8.46211 13.8527 8.67188 13.5938 8.67188C13.3348 8.67188 13.125 8.46211 13.125 8.20312V7.73438C13.125 7.47539 13.3348 7.26562 13.5938 7.26562C13.8527 7.26562 14.0625 7.47539 14.0625 7.73438V8.20312ZM0 5.85938V14.5312C0 14.7901 0.209854 15 0.46875 15H2.66602C2.68525 15 2.7043 14.9962 2.72207 14.9888C2.73985 14.9815 2.75599 14.9707 2.7696 14.9571C2.7832 14.9435 2.79399 14.9273 2.80135 14.9096C2.80871 14.8918 2.8125 14.8728 2.8125 14.8535V5.53711C2.8125 5.51787 2.80871 5.49882 2.80135 5.48105C2.79399 5.46328 2.7832 5.44713 2.7696 5.43353C2.75599 5.41993 2.73985 5.40914 2.72207 5.40178C2.7043 5.39441 2.68525 5.39062 2.66602 5.39062H0.46875C0.209854 5.39062 0 5.60048 0 5.85938ZM0.9375 7.73438C0.9375 7.47539 1.14727 7.26562 1.40625 7.26562C1.66523 7.26562 1.875 7.47539 1.875 7.73438V8.20312C1.875 8.46211 1.66523 8.67188 1.40625 8.67188C1.14727 8.67188 0.9375 8.46211 0.9375 8.20312V7.73438ZM0.9375 9.84375C0.9375 9.58477 1.14727 9.375 1.40625 9.375C1.66523 9.375 1.875 9.58477 1.875 9.84375V10.3125C1.875 10.5715 1.66523 10.7812 1.40625 10.7812C1.14727 10.7812 0.9375 10.5715 0.9375 10.3125V9.84375ZM0.9375 11.9531C0.9375 11.6941 1.14727 11.4844 1.40625 11.4844C1.66523 11.4844 1.875 11.6941 1.875 11.9531V12.4219C1.875 12.6809 1.66523 12.8906 1.40625 12.8906C1.14727 12.8906 0.9375 12.6809 0.9375 12.4219V11.9531Z" fill="#C5C5C5"/>
</svg>
