<svg width="20" height="20" viewBox="0 0 20 20" fill="none" xmlns="http://www.w3.org/2000/svg">
<path d="M5.23679 0.952381C5.23679 0.426395 4.8104 0 4.28441 0C3.75843 0 3.33203 0.426395 3.33203 0.952381V1.90476C3.33203 2.43075 3.75843 2.85714 4.28441 2.85714C4.8104 2.85714 5.23679 2.43075 5.23679 1.90476V0.952381Z" fill="#0E7DBD"/>
<path d="M15.7134 0.952381C15.7134 0.426395 15.287 0 14.761 0C14.235 0 13.8086 0.426395 13.8086 0.952381V1.90476C13.8086 2.43075 14.235 2.85714 14.761 2.85714C15.287 2.85714 15.7134 2.43075 15.7134 1.90476V0.952381Z" fill="#0E7DBD"/>
<path d="M0 7.14275V18.0951C0 18.6003 0.20068 19.0848 0.557892 19.442C0.915104 19.7992 1.39959 19.9999 1.90476 19.9999H17.1429C17.648 19.9999 18.1325 19.7992 18.4897 19.442C18.8469 19.0848 19.0476 18.6003 19.0476 18.0951V7.14275H0ZM5.71429 16.6666C5.71429 16.9191 5.61395 17.1614 5.43534 17.34C5.25673 17.5186 5.01449 17.6189 4.76191 17.6189H3.80952C3.55694 17.6189 3.3147 17.5186 3.13609 17.34C2.95748 17.1614 2.85714 16.9191 2.85714 16.6666V15.7142C2.85714 15.4616 2.95748 15.2194 3.13609 15.0407C3.3147 14.8621 3.55694 14.7618 3.80952 14.7618H4.76191C5.01449 14.7618 5.25673 14.8621 5.43534 15.0407C5.61395 15.2194 5.71429 15.4616 5.71429 15.7142V16.6666ZM5.71429 11.4285C5.71429 11.6811 5.61395 11.9233 5.43534 12.1019C5.25673 12.2805 5.01449 12.3808 4.76191 12.3808H3.80952C3.55694 12.3808 3.3147 12.2805 3.13609 12.1019C2.95748 11.9233 2.85714 11.6811 2.85714 11.4285V10.4761C2.85714 10.2235 2.95748 9.98126 3.13609 9.80265C3.3147 9.62405 3.55694 9.5237 3.80952 9.5237H4.76191C5.01449 9.5237 5.25673 9.62405 5.43534 9.80265C5.61395 9.98126 5.71429 10.2235 5.71429 10.4761V11.4285ZM10.9524 16.6666C10.9524 16.9191 10.852 17.1614 10.6734 17.34C10.4948 17.5186 10.2526 17.6189 10 17.6189H9.04762C8.79503 17.6189 8.55279 17.5186 8.37418 17.34C8.19558 17.1614 8.09524 16.9191 8.09524 16.6666V15.7142C8.09524 15.4616 8.19558 15.2194 8.37418 15.0407C8.55279 14.8621 8.79503 14.7618 9.04762 14.7618H10C10.2526 14.7618 10.4948 14.8621 10.6734 15.0407C10.852 15.2194 10.9524 15.4616 10.9524 15.7142V16.6666ZM10.9524 11.4285C10.9524 11.6811 10.852 11.9233 10.6734 12.1019C10.4948 12.2805 10.2526 12.3808 10 12.3808H9.04762C8.79503 12.3808 8.55279 12.2805 8.37418 12.1019C8.19558 11.9233 8.09524 11.6811 8.09524 11.4285V10.4761C8.09524 10.2235 8.19558 9.98126 8.37418 9.80265C8.55279 9.62405 8.79503 9.5237 9.04762 9.5237H10C10.2526 9.5237 10.4948 9.62405 10.6734 9.80265C10.852 9.98126 10.9524 10.2235 10.9524 10.4761V11.4285ZM16.1905 16.6666C16.1905 16.9191 16.0901 17.1614 15.9115 17.34C15.7329 17.5186 15.4907 17.6189 15.2381 17.6189H14.2857C14.0331 17.6189 13.7909 17.5186 13.6123 17.34C13.4337 17.1614 13.3333 16.9191 13.3333 16.6666V15.7142C13.3333 15.4616 13.4337 15.2194 13.6123 15.0407C13.7909 14.8621 14.0331 14.7618 14.2857 14.7618H15.2381C15.4907 14.7618 15.7329 14.8621 15.9115 15.0407C16.0901 15.2194 16.1905 15.4616 16.1905 15.7142V16.6666ZM16.1905 11.4285C16.1905 11.6811 16.0901 11.9233 15.9115 12.1019C15.7329 12.2805 15.4907 12.3808 15.2381 12.3808H14.2857C14.0331 12.3808 13.7909 12.2805 13.6123 12.1019C13.4337 11.9233 13.3333 11.6811 13.3333 11.4285V10.4761C13.3333 10.2235 13.4337 9.98126 13.6123 9.80265C13.7909 9.62405 14.0331 9.5237 14.2857 9.5237H15.2381C15.4907 9.5237 15.7329 9.62405 15.9115 9.80265C16.0901 9.98126 16.1905 10.2235 16.1905 10.4761V11.4285ZM19.0476 6.19037V3.33323C19.0476 2.82805 18.8469 2.34357 18.4897 1.98636C18.1325 1.62915 17.648 1.42847 17.1429 1.42847H16.6667V1.90466C16.6667 2.95513 15.8124 3.80942 14.7619 3.80942C13.7114 3.80942 12.8571 2.95513 12.8571 1.90466V1.42847H6.19048V1.90466C6.19048 2.95513 5.33619 3.80942 4.28571 3.80942C3.23524 3.80942 2.38095 2.95513 2.38095 1.90466V1.42847H1.90476C1.39959 1.42847 0.915104 1.62915 0.557892 1.98636C0.20068 2.34357 0 2.82805 0 3.33323V6.19037H19.0476Z" fill="#0E7DBD"/>
</svg>
