<svg width="19" height="20" viewBox="0 0 19 20" fill="none" xmlns="http://www.w3.org/2000/svg">
<path d="M18.7032 5.04632C18.5839 3.06319 16.928 1.50952 14.9335 1.50952H13.9625V0.75476C13.9625 0.554585 13.883 0.362609 13.7415 0.221064C13.5999 0.0795191 13.408 0 13.2078 0C13.0076 0 12.8156 0.0795191 12.6741 0.221064C12.5325 0.362609 12.453 0.554585 12.453 0.75476V1.50952H6.41495V0.75476C6.41495 0.554585 6.33543 0.362609 6.19388 0.221064C6.05234 0.0795191 5.86036 0 5.66019 0C5.46001 0 5.26804 0.0795191 5.12649 0.221064C4.98495 0.362609 4.90543 0.554585 4.90543 0.75476V1.50952H3.93443C1.9396 1.50952 0.283658 3.06319 0.164783 5.04632C-0.0590032 8.77635 -0.0548521 12.56 0.177237 16.2919C0.294979 18.1871 1.81318 19.7053 3.70838 19.823C5.60773 19.9411 7.52067 20 9.43361 20C11.3462 20 13.2595 19.9411 15.1588 19.823C17.054 19.7053 18.5722 18.1871 18.69 16.2919C18.9224 12.5618 18.9266 8.77861 18.7032 5.04632ZM17.1839 16.1983C17.1489 16.7486 16.9145 17.2673 16.5246 17.6572C16.1346 18.0471 15.6159 18.2815 15.0656 18.3165C11.3288 18.5486 7.53916 18.5486 3.80235 18.3165C3.25202 18.2815 2.73333 18.0471 2.34341 17.6572C1.95348 17.2673 1.71909 16.7486 1.68411 16.1983C1.50721 13.3182 1.46729 10.4314 1.56448 7.5476H17.3039C17.399 10.4308 17.3624 13.3302 17.1839 16.1983ZM5.66019 4.52856C5.86036 4.52856 6.05234 4.44904 6.19388 4.30749C6.33543 4.16595 6.41495 3.97397 6.41495 3.7738V3.01904H12.453V3.7738C12.453 3.97397 12.5325 4.16595 12.6741 4.30749C12.8156 4.44904 13.0076 4.52856 13.2078 4.52856C13.408 4.52856 13.5999 4.44904 13.7415 4.30749C13.883 4.16595 13.9625 3.97397 13.9625 3.7738V3.01904H14.9335C16.131 3.01904 17.125 3.94928 17.1963 5.13652C17.214 5.43616 17.2216 5.73768 17.2363 6.03808H1.63166C1.64675 5.73768 1.65392 5.43616 1.67166 5.13652C1.74299 3.94928 2.73663 3.01904 3.93443 3.01904H4.90543V3.7738C4.90543 3.97397 4.98495 4.16595 5.12649 4.30749C5.26804 4.44904 5.46001 4.52856 5.66019 4.52856Z" fill="#2F2F2F"/>
<path d="M5.65948 12.0768C6.28475 12.0768 6.79162 11.5699 6.79162 10.9446C6.79162 10.3194 6.28475 9.8125 5.65948 9.8125C5.03422 9.8125 4.52734 10.3194 4.52734 10.9446C4.52734 11.5699 5.03422 12.0768 5.65948 12.0768Z" fill="#2F2F2F"/>
<path d="M9.43487 12.0768C10.0601 12.0768 10.567 11.5699 10.567 10.9446C10.567 10.3194 10.0601 9.8125 9.43487 9.8125C8.80961 9.8125 8.30273 10.3194 8.30273 10.9446C8.30273 11.5699 8.80961 12.0768 9.43487 12.0768Z" fill="#2F2F2F"/>
<path d="M5.65948 15.8502C6.28475 15.8502 6.79162 15.3433 6.79162 14.7181C6.79162 14.0928 6.28475 13.5859 5.65948 13.5859C5.03422 13.5859 4.52734 14.0928 4.52734 14.7181C4.52734 15.3433 5.03422 15.8502 5.65948 15.8502Z" fill="#2F2F2F"/>
<path d="M13.2083 12.0768C13.8336 12.0768 14.3405 11.5699 14.3405 10.9446C14.3405 10.3194 13.8336 9.8125 13.2083 9.8125C12.583 9.8125 12.0762 10.3194 12.0762 10.9446C12.0762 11.5699 12.583 12.0768 13.2083 12.0768Z" fill="#2F2F2F"/>
<path d="M13.2083 15.8502C13.8336 15.8502 14.3405 15.3433 14.3405 14.7181C14.3405 14.0928 13.8336 13.5859 13.2083 13.5859C12.583 13.5859 12.0762 14.0928 12.0762 14.7181C12.0762 15.3433 12.583 15.8502 13.2083 15.8502Z" fill="#2F2F2F"/>
<path d="M9.43487 15.8502C10.0601 15.8502 10.567 15.3433 10.567 14.7181C10.567 14.0928 10.0601 13.5859 9.43487 13.5859C8.80961 13.5859 8.30273 14.0928 8.30273 14.7181C8.30273 15.3433 8.80961 15.8502 9.43487 15.8502Z" fill="#2F2F2F"/>
</svg>
