<svg width="26" height="26" viewBox="0 0 26 26" fill="none" xmlns="http://www.w3.org/2000/svg">
<path d="M20.8 20.8C19.357 20.8 18.2 21.957 18.2 23.4C18.2 24.0896 18.4739 24.7509 18.9615 25.2385C19.4491 25.7261 20.1104 26 20.8 26C21.4896 26 22.1509 25.7261 22.6385 25.2385C23.1261 24.7509 23.4 24.0896 23.4 23.4C23.4 22.7104 23.1261 22.0491 22.6385 21.5615C22.1509 21.0739 21.4896 20.8 20.8 20.8ZM0 0V2.6H2.6L7.28 12.467L5.512 15.652C5.317 16.016 5.2 16.445 5.2 16.9C5.2 17.5896 5.47393 18.2509 5.96152 18.7385C6.44912 19.2261 7.11044 19.5 7.8 19.5H22.1C22.818 19.5 23.4 18.918 23.4 18.2C23.4 17.482 22.818 16.9 22.1 16.9H8.346C8.2598 16.9 8.17714 16.8658 8.11619 16.8048C8.05524 16.7439 8.021 16.6612 8.021 16.575C8.021 16.51 8.034 16.458 8.06 16.419L9.23 14.3H18.915C19.89 14.3 20.748 13.754 21.19 12.961L25.844 4.55C25.935 4.342 26 4.121 26 3.9C26 3.55522 25.863 3.22456 25.6192 2.98076C25.3754 2.73696 25.0448 2.6 24.7 2.6H5.473L4.251 0M7.8 20.8C6.357 20.8 5.2 21.957 5.2 23.4C5.2 24.0896 5.47393 24.7509 5.96152 25.2385C6.44912 25.7261 7.11044 26 7.8 26C8.48956 26 9.15088 25.7261 9.63848 25.2385C10.1261 24.7509 10.4 24.0896 10.4 23.4C10.4 22.7104 10.1261 22.0491 9.63848 21.5615C9.15088 21.0739 8.48956 20.8 7.8 20.8Z" fill="white"/>
</svg>
