<svg width="22" height="20" viewBox="0 0 22 20" fill="none" xmlns="http://www.w3.org/2000/svg">
<path d="M15.8252 0H5.27506C2.36624 0 0 2.36624 0 5.27506V11.0173C0 13.9261 2.36624 16.2924 5.27506 16.2924H6.526L10.0151 19.7815C10.1658 19.9322 10.3542 20 10.5501 20C10.746 20 10.9344 19.9322 11.0852 19.7815L14.5742 16.2924H15.8252C18.734 16.2924 21.1002 13.9261 21.1002 11.0173V5.27506C21.1002 2.36624 18.734 0 15.8252 0ZM10.5501 10.4898H6.78222C6.36775 10.4898 6.02864 10.1507 6.02864 9.73625C6.02864 9.32178 6.36775 8.98267 6.78222 8.98267H10.5501C10.9646 8.98267 11.3037 9.32178 11.3037 9.73625C11.3037 10.1507 10.9646 10.4898 10.5501 10.4898ZM14.318 7.20422H6.78222C6.36775 7.20422 6.02864 6.86511 6.02864 6.45064C6.02864 6.03617 6.36775 5.69706 6.78222 5.69706H14.318C14.7325 5.69706 15.0716 6.03617 15.0716 6.45064C15.0716 6.86511 14.7325 7.20422 14.318 7.20422Z" fill="#0E7DBD"/>
</svg>
