<svg width="31" height="26" viewBox="0 0 31 26" fill="none" xmlns="http://www.w3.org/2000/svg">
<path d="M15.0312 26C14.8791 26 14.7271 25.9607 14.5909 25.882C14.4429 25.7967 10.9276 23.7556 7.36179 20.6802C5.24838 18.8575 3.56137 17.0496 2.34772 15.307C0.777193 13.0519 -0.0125895 10.8829 0.000151726 8.85994C0.0150655 6.50603 0.858162 4.29234 2.37431 2.62658C3.91607 0.932755 5.97358 0 8.16795 0C10.9802 0 13.5515 1.57534 15.0313 4.07086C16.5111 1.5754 19.0823 0 21.8946 0C23.9677 0 25.9457 0.841628 27.4643 2.36988C29.1309 4.04697 30.0778 6.41661 30.0623 8.87109C30.0495 10.8905 29.2449 13.0563 27.6709 15.3082C26.4535 17.05 24.7688 18.857 22.6637 20.6792C19.1109 23.7543 15.6208 25.7953 15.474 25.8807C15.3395 25.9588 15.1867 26 15.0312 26Z" fill="#8BC067"/>
</svg>
