<svg width="17" height="15" viewBox="0 0 17 15" fill="none" xmlns="http://www.w3.org/2000/svg">
<path d="M16.0772 6.34367L9.17718 0.336265C8.92687 0.119385 8.60676 0 8.27556 0C7.94436 0 7.62426 0.119385 7.37394 0.336265L0.475478 6.33976C0.263931 6.52162 0.113142 6.7639 0.0433877 7.03401C-0.0263665 7.30412 -0.011741 7.58912 0.0852976 7.85067C0.182336 8.11222 0.357134 8.33779 0.586187 8.49704C0.81524 8.6563 1.08756 8.74159 1.36654 8.74147H2.21144V13.6309C2.21185 13.9941 2.35633 14.3422 2.61316 14.5988C2.86999 14.8555 3.21817 14.9998 3.58127 15H5.53706C5.90003 14.9996 6.24802 14.8552 6.50467 14.5986C6.76133 14.3419 6.9057 13.9939 6.90612 13.6309V11.6752C6.90617 11.4835 6.94636 11.294 7.02411 11.1188C7.10185 10.9437 7.21543 10.7867 7.35751 10.6581C7.49986 10.5286 7.66812 10.4307 7.85114 10.3711C8.03416 10.3115 8.22777 10.2915 8.41912 10.3124C8.7682 10.3664 9.08546 10.5463 9.31112 10.818C9.53678 11.0898 9.65526 11.4347 9.64422 11.7878V13.6302C9.64464 13.9931 9.78901 14.3411 10.0457 14.5978C10.3023 14.8544 10.6503 14.9988 11.0133 14.9992H12.9691C13.332 14.9988 13.68 14.8544 13.9367 14.5978C14.1933 14.3411 14.3377 13.9931 14.3381 13.6302V8.74069H15.183C15.4614 8.74053 15.733 8.65533 15.9616 8.49652C16.1902 8.3377 16.3648 8.11284 16.4621 7.85204C16.5593 7.59124 16.5746 7.30695 16.5058 7.03724C16.437 6.76753 16.2875 6.52526 16.0772 6.34289V6.34367Z" fill="#C5C5C5"/>
</svg>
