<svg width="45" height="45" viewBox="0 0 54 54" fill="none" xmlns="http://www.w3.org/2000/svg">
<circle cx="26.6667" cy="27.0026" r="26.6667" fill="#8BC067"/>
<path d="M26.6657 23.9119C24.9563 23.9119 23.5705 25.2977 23.5705 27.0071C23.5705 28.7166 24.9563 30.1024 26.6657 30.1024C28.3752 30.1024 29.761 28.7166 29.761 27.0071C29.761 25.2977 28.3752 23.9119 26.6657 23.9119Z" fill="white"/>
<path fill-rule="evenodd" clip-rule="evenodd" d="M21.6843 18.5133C24.9683 18.1463 28.3632 18.1463 31.6472 18.5133C33.4551 18.7154 34.9134 20.1399 35.1256 21.9543C35.5183 25.3114 35.5183 28.7029 35.1256 32.06C34.9134 33.8744 33.4551 35.2989 31.6472 35.501C28.3632 35.868 24.9683 35.868 21.6843 35.501C19.8763 35.2989 18.4181 33.8744 18.2059 32.06C17.8132 28.7029 17.8132 25.3114 18.2059 21.9543C18.4181 20.1399 19.8763 18.7154 21.6843 18.5133ZM31.4276 21.2929C30.9017 21.2929 30.4753 21.7193 30.4753 22.2452C30.4753 22.7712 30.9017 23.1976 31.4276 23.1976C31.9536 23.1976 32.38 22.7712 32.38 22.2452C32.38 21.7193 31.9536 21.2929 31.4276 21.2929ZM22.1419 27.0071C22.1419 24.5087 24.1673 22.4833 26.6657 22.4833C29.1642 22.4833 31.1895 24.5087 31.1895 27.0071C31.1895 29.5056 29.1642 31.531 26.6657 31.531C24.1673 31.531 22.1419 29.5056 22.1419 27.0071Z" fill="white"/>
</svg>
