<svg width="24" height="16" viewBox="0 0 24 16" fill="none" xmlns="http://www.w3.org/2000/svg">
<path d="M4.63455 9.21347L8.86864 13.4462L8.86868 13.4462C9.0904 13.668 9.21495 13.9687 9.21495 14.2822C9.21495 14.5958 9.0904 14.8965 8.86868 15.1182C8.64697 15.3399 8.34626 15.4645 8.03271 15.4645C7.71917 15.4645 7.41846 15.3399 7.19675 15.1182L0.947102 8.86854C0.837099 8.75881 0.749821 8.62846 0.690271 8.48495C0.630722 8.34144 0.600069 8.18759 0.600069 8.03222C0.600069 7.87684 0.630722 7.72299 0.690271 7.57948C0.749821 7.43597 0.837099 7.30562 0.947102 7.19589L7.19675 0.94625C7.41846 0.724537 7.71917 0.599981 8.03271 0.599981C8.34626 0.599981 8.64697 0.724537 8.86868 0.94625C9.0904 1.16796 9.21495 1.46867 9.21495 1.78222C9.21495 2.09576 9.0904 2.39647 8.86868 2.61819L8.86864 2.61823L4.63455 6.85097L22.0952 6.85097C22.4085 6.85097 22.709 6.97542 22.9305 7.19695L22.6488 7.47864L22.9305 7.19695C23.152 7.41847 23.2765 7.71893 23.2765 8.03222C23.2765 8.3455 23.152 8.64596 22.9305 8.86749C22.709 9.08901 22.4085 9.21347 22.0952 9.21347H4.63455Z" fill="white" stroke="white" stroke-width="0.8"/>
</svg>
