<svg width="12" height="15" viewBox="0 0 12 15" fill="none" xmlns="http://www.w3.org/2000/svg">
<path d="M5.83333 0C4.28624 0 2.80251 0.614582 1.70854 1.70854C0.614581 2.80251 0 4.28624 0 5.83333C0 10.5556 5.83333 15 5.83333 15C5.83333 15 11.6667 10.5556 11.6667 5.83333C11.6667 4.28624 11.0521 2.80251 9.95812 1.70854C8.86416 0.614582 7.38043 0 5.83333 0ZM5.83333 8.61111C5.28394 8.61111 4.74689 8.4482 4.29008 8.14297C3.83328 7.83775 3.47724 7.40392 3.267 6.89634C3.05676 6.38877 3.00175 5.83025 3.10893 5.29142C3.21611 4.75258 3.48067 4.25763 3.86915 3.86915C4.25763 3.48067 4.75258 3.21611 5.29142 3.10893C5.83025 3.00175 6.38877 3.05676 6.89634 3.267C7.40392 3.47724 7.83775 3.83328 8.14297 4.29008C8.4482 4.74689 8.61111 5.28394 8.61111 5.83333C8.61111 6.57005 8.31845 7.27658 7.79752 7.79752C7.27658 8.31845 6.57005 8.61111 5.83333 8.61111Z" fill="#C5C5C5"/>
</svg>
