<svg width="17" height="16" viewBox="0 0 17 16" fill="none" xmlns="http://www.w3.org/2000/svg">
<path d="M11.2158 1.65787L4.43174 4.66453L7.55011 6.04665L14.3341 3.03991L11.2158 1.65787ZM3.41912 4.21575L10.2032 1.20909L7.88264 0.180739C7.77792 0.134328 7.66465 0.110352 7.55011 0.110352C7.43557 0.110352 7.3223 0.134328 7.21758 0.180739L0.766333 3.04002L3.41912 4.21575ZM7.1398 6.7624L0.164062 3.67065V11.7417C0.164085 11.9005 0.210225 12.056 0.296881 12.1892C0.383537 12.3223 0.506983 12.4275 0.652234 12.4918L7.13976 15.3671L7.1398 6.7624ZM7.96046 12.3049V15.3672L8.83967 14.9775C8.26776 14.2039 7.95954 13.267 7.96046 12.3049Z" fill="#FF2424"/>
<path d="M12.4727 7.79118C13.3473 7.79044 14.2031 8.04539 14.9347 8.52467V3.67065L7.95898 6.76241V12.3049C7.96033 11.1082 8.43631 9.96092 9.28249 9.11472C10.1287 8.26853 11.276 7.79254 12.4727 7.79118Z" fill="#FF2424"/>
<path d="M12.4743 8.61206C11.7439 8.61206 11.0299 8.82865 10.4225 9.23445C9.81523 9.64024 9.34188 10.217 9.06237 10.8918C8.78285 11.5666 8.70972 12.3092 8.85221 13.0256C8.99471 13.7419 9.34643 14.4 9.86291 14.9164C10.3794 15.4329 11.0374 15.7847 11.7538 15.9271C12.4702 16.0696 13.2127 15.9965 13.8875 15.717C14.5623 15.4375 15.1391 14.9641 15.5449 14.3568C15.9507 13.7495 16.1673 13.0355 16.1673 12.3051C16.1673 11.3256 15.7782 10.3863 15.0856 9.69372C14.3931 9.00115 13.4537 8.61206 12.4743 8.61206ZM13.9954 13.246C14.0342 13.2839 14.0651 13.3292 14.0864 13.3791C14.1076 13.4291 14.1186 13.4828 14.119 13.5371C14.1193 13.5913 14.1088 13.6451 14.0882 13.6953C14.0675 13.7456 14.0372 13.7912 13.9988 13.8296C13.9604 13.8679 13.9148 13.8983 13.8646 13.9189C13.8144 13.9396 13.7606 13.95 13.7063 13.9497C13.652 13.9494 13.5983 13.9383 13.5484 13.9171C13.4984 13.8959 13.4531 13.865 13.4152 13.8262L12.4743 12.8853L11.5334 13.8262C11.4955 13.865 11.4502 13.8959 11.4002 13.9171C11.3503 13.9383 11.2966 13.9494 11.2423 13.9497C11.188 13.95 11.1342 13.9396 11.084 13.9189C11.0338 13.8983 10.9882 13.8679 10.9498 13.8296C10.9114 13.7912 10.881 13.7456 10.8604 13.6953C10.8398 13.6451 10.8293 13.5913 10.8296 13.5371C10.83 13.4828 10.841 13.4291 10.8622 13.3791C10.8834 13.3292 10.9144 13.2839 10.9532 13.246L11.894 12.3051L10.9532 11.3642C10.9144 11.3263 10.8834 11.281 10.8622 11.231C10.841 11.1811 10.83 11.1274 10.8296 11.0731C10.8293 11.0188 10.8398 10.965 10.8604 10.9148C10.881 10.8646 10.9114 10.819 10.9498 10.7806C10.9882 10.7422 11.0338 10.7119 11.084 10.6912C11.1342 10.6706 11.188 10.6601 11.2423 10.6604C11.2966 10.6608 11.3503 10.6718 11.4002 10.693C11.4502 10.7143 11.4955 10.7452 11.5334 10.784L12.4743 11.7249L13.4152 10.784C13.4531 10.7452 13.4984 10.7143 13.5483 10.693C13.5983 10.6718 13.652 10.6608 13.7062 10.6604C13.7605 10.6601 13.8143 10.6706 13.8645 10.6912C13.9147 10.7119 13.9604 10.7422 13.9987 10.7806C14.0371 10.819 14.0675 10.8646 14.0881 10.9148C14.1088 10.965 14.1192 11.0188 14.1189 11.0731C14.1186 11.1274 14.1075 11.1811 14.0863 11.231C14.0651 11.281 14.0342 11.3263 13.9954 11.3642L13.0545 12.3051L13.9954 13.246Z" fill="#FF2424"/>
</svg>
