<svg width="26" height="26" viewBox="0 0 26 26" fill="none" xmlns="http://www.w3.org/2000/svg">
<path d="M24.2269 21.2728H20.0906C17.4841 21.2728 15.3634 19.1521 15.3634 16.5456C15.3634 13.9391 17.4841 11.8184 20.0906 11.8184H24.2269C24.3045 11.8185 24.3814 11.8032 24.4531 11.7735C24.5248 11.7439 24.59 11.7003 24.6449 11.6454C24.6998 11.5906 24.7433 11.5254 24.773 11.4537C24.8026 11.382 24.8179 11.3051 24.8178 11.2275V9.45479C24.8178 8.21568 23.8567 7.20795 22.6423 7.11023L19.2487 1.18277C18.9342 0.634567 18.4264 0.242745 17.8188 0.0800448C17.214 -0.0815477 16.5816 0.00332021 16.0403 0.318362L4.40682 7.09118H2.36362C1.06007 7.09118 0 8.1512 0 9.45479V23.6364C0 24.9399 1.06002 26 2.36362 26H22.4542C23.7578 26 24.8178 24.94 24.8178 23.6364V21.8637C24.8179 21.7861 24.8026 21.7092 24.773 21.6375C24.7433 21.5658 24.6998 21.5006 24.6449 21.4457C24.59 21.3908 24.5248 21.3473 24.4531 21.3176C24.3814 21.288 24.3045 21.2727 24.2269 21.2728ZM19.9816 4.84229L21.2691 7.09118H16.1188L19.9816 4.84229ZM6.75564 7.09118L16.6352 1.33971C16.9024 1.18333 17.2146 1.14178 17.5129 1.22144C17.8147 1.30221 18.0663 1.49726 18.2227 1.7702L18.224 1.77236L9.08846 7.09118H6.75564Z" fill="white"/>
<path d="M24.2286 13H20.0923C18.1372 13 16.5469 14.5903 16.5469 16.5454C16.5469 18.5005 18.1372 20.0908 20.0923 20.0908H24.2286C25.2061 20.0908 26.0013 19.2956 26.0013 18.3181V14.7727C26.0013 13.7952 25.2061 13 24.2286 13ZM20.0923 17.7272C19.4408 17.7272 18.9105 17.1969 18.9105 16.5454C18.9105 15.8939 19.4408 15.3636 20.0923 15.3636C20.7437 15.3636 21.2741 15.8939 21.2741 16.5454C21.2741 17.1969 20.7438 17.7272 20.0923 17.7272Z" fill="white"/>
</svg>
