<svg width="16" height="16" viewBox="0 0 18 18" fill="none" xmlns="http://www.w3.org/2000/svg">
<path d="M9 18C8.7669 18 8.54335 17.9074 8.37852 17.7426C8.21369 17.5777 8.12109 17.3542 8.12109 17.1211V0.878906C8.12109 0.645806 8.21369 0.422253 8.37852 0.257426C8.54335 0.0925988 8.7669 0 9 0C9.2331 0 9.45665 0.0925988 9.62148 0.257426C9.78631 0.422253 9.87891 0.645806 9.87891 0.878906V17.1211C9.87891 17.3542 9.78631 17.5777 9.62148 17.7426C9.45665 17.9074 9.2331 18 9 18Z" fill="black"/>
<path d="M17.1211 9.86328H0.878906C0.645806 9.86328 0.422253 9.77068 0.257426 9.60586C0.0925988 9.44103 0 9.21748 0 8.98438C0 8.75127 0.0925988 8.52772 0.257426 8.36289C0.422253 8.19807 0.645806 8.10547 0.878906 8.10547H17.1211C17.3542 8.10547 17.5777 8.19807 17.7426 8.36289C17.9074 8.52772 18 8.75127 18 8.98438C18 9.21748 17.9074 9.44103 17.7426 9.60586C17.5777 9.77068 17.3542 9.86328 17.1211 9.86328Z" fill="black"/>
</svg>
