<svg width="8" height="10" viewBox="0 0 8 10" fill="none" xmlns="http://www.w3.org/2000/svg">
<path d="M1.53656 0.000122488C1.3889 -0.00261553 1.24404 0.040609 1.12202 0.123815C1.00001 0.207021 0.906873 0.326094 0.855503 0.464557C0.804133 0.603019 0.797069 0.754025 0.835289 0.896679C0.87351 1.03933 0.955125 1.16658 1.06884 1.26081L5.42077 4.98643L1.06615 8.71205C0.986596 8.77005 0.919927 8.8439 0.87035 8.92896C0.820773 9.01401 0.789365 9.10842 0.778109 9.20623C0.766853 9.30403 0.775992 9.4031 0.80495 9.4972C0.833908 9.59129 0.882057 9.67836 0.946357 9.75291C1.01066 9.82746 1.08971 9.88788 1.17853 9.93034C1.26735 9.9728 1.36401 9.99639 1.46241 9.99962C1.56081 10.0028 1.6588 9.98564 1.75022 9.94909C1.84163 9.91255 1.92448 9.85744 1.99352 9.78727L6.97177 5.5321C7.05006 5.46523 7.11292 5.38218 7.15603 5.28867C7.19913 5.19517 7.22145 5.09343 7.22145 4.99046C7.22145 4.8875 7.19913 4.78576 7.15603 4.69225C7.11292 4.59875 7.05006 4.5157 6.97177 4.44882L1.99352 0.180221C1.86737 0.06791 1.70541 0.00408028 1.53656 0.000122488Z" fill="white"/>
</svg>
