<svg width="24" height="16" viewBox="0 0 24 16" fill="none" xmlns="http://www.w3.org/2000/svg">
<path d="M19.2419 9.21347L15.0078 13.4462L15.0078 13.4462C14.7861 13.668 14.6615 13.9687 14.6615 14.2822C14.6615 14.5958 14.7861 14.8965 15.0078 15.1182C15.2295 15.3399 15.5302 15.4645 15.8438 15.4645C16.1573 15.4645 16.458 15.3399 16.6797 15.1182L22.9294 8.86854C23.0394 8.75881 23.1266 8.62846 23.1862 8.48495C23.2457 8.34144 23.2764 8.18759 23.2764 8.03222C23.2764 7.87684 23.2457 7.72299 23.1862 7.57948C23.1266 7.43597 23.0394 7.30562 22.9294 7.19589L16.6797 0.94625C16.458 0.724537 16.1573 0.599981 15.8438 0.599981C15.5302 0.599981 15.2295 0.724537 15.0078 0.94625C14.7861 1.16796 14.6615 1.46867 14.6615 1.78222C14.6615 2.09576 14.7861 2.39647 15.0078 2.61819L15.0078 2.61823L19.2419 6.85097L1.78125 6.85097C1.46796 6.85097 1.16751 6.97542 0.94598 7.19695L1.22768 7.47864L0.94598 7.19695C0.724452 7.41847 0.6 7.71893 0.6 8.03222C0.6 8.3455 0.724453 8.64596 0.94598 8.86749C1.16751 9.08901 1.46796 9.21347 1.78125 9.21347H19.2419Z" fill="white" stroke="white" stroke-width="0.8"/>
</svg>
