<svg width="80" height="80" viewBox="0 0 80 80" fill="none" xmlns="http://www.w3.org/2000/svg">
<circle cx="40" cy="40" r="40" fill="#8BC067"/>
<path fill-rule="evenodd" clip-rule="evenodd" d="M22 31.4446H58.09V28.7954C58.0892 28.2922 57.9874 27.7942 57.7907 27.331C57.594 26.8678 57.3062 26.4488 56.9446 26.0988C56.2148 25.3927 55.2387 24.9986 54.2232 25H25.8668C24.8513 24.9986 23.8752 25.3927 23.1454 26.0988C22.7838 26.4488 22.496 26.8678 22.2993 27.331C22.1026 27.7942 22.0008 28.2922 22 28.7954V31.4446ZM31.9402 50.2308C31.2762 48.9656 30.9302 47.5578 30.9322 46.1289V40.8276C30.9322 39.9602 31.2576 39.1328 31.8173 38.5195C31.9085 38.4197 32.4108 38.0341 33.2535 37.6554C35.0782 36.835 39.3244 35.1291 39.3244 35.1291C39.7897 34.9423 40.3098 34.9435 40.7742 35.1328C41.2387 35.3222 44.9627 36.8388 46.7643 37.6591C47.595 38.0374 48.0912 38.4197 48.1824 38.5195C48.7421 39.1328 49.0675 39.9602 49.0675 40.8276V46.1021C49.0675 47.5746 48.7037 48.9935 48.045 50.2308H54.2232C55.2387 50.2322 56.2148 49.8381 56.9446 49.132C57.3063 48.7821 57.594 48.3631 57.7908 47.8999C57.9875 47.4367 58.0893 46.9387 58.09 46.4354V34.0225H22V46.4354C22 47.4463 22.4104 48.4173 23.1454 49.132C23.8752 49.8381 24.8513 50.2322 25.8668 50.2308H31.9402Z" fill="white"/>
<path fill-rule="evenodd" clip-rule="evenodd" d="M40.0701 36.4108L40.042 36.4104C39.889 36.4101 39.7373 36.4392 39.5953 36.4962C39.5953 36.4962 35.6893 38.0652 34.0111 38.8196C33.354 39.1149 32.9515 39.3982 32.8805 39.4758C32.4528 39.9506 32.2168 40.5674 32.2185 41.2065V46.1019C32.2185 48.3832 33.2373 50.5181 34.9312 51.8445L38.5258 54.6596C38.9306 54.9812 39.4314 55.158 39.9484 55.1619H39.9719C40.4806 55.1561 40.9732 54.983 41.3738 54.6695L45.0282 51.847C46.7424 50.5235 47.776 48.3754 47.776 46.0772V41.2065C47.7777 40.5674 47.5417 39.9506 47.114 39.4758C47.0431 39.3982 46.6454 39.1174 45.9975 38.822C44.3406 38.0677 40.4879 36.4983 40.4879 36.4983C40.355 36.4442 40.2135 36.4146 40.0701 36.4108ZM36.5378 47.0147L39.0781 49.1809C39.213 49.2959 39.3702 49.3819 39.5399 49.4334C39.7095 49.4849 39.888 49.5009 40.0641 49.4803C40.2402 49.4597 40.4101 49.403 40.5633 49.3137C40.7165 49.2244 40.8496 49.1045 40.9544 48.9615L44.0511 44.7334C44.2529 44.4575 44.3369 44.1128 44.2847 43.775C44.2325 43.4371 44.0484 43.1339 43.7727 42.9318C43.4968 42.73 43.1521 42.6459 42.8143 42.6981C42.4764 42.7503 42.1732 42.9345 41.9711 43.2102L39.6947 46.3189L38.2103 45.0534C38.0815 44.9436 37.9324 44.8602 37.7714 44.8081C37.6104 44.7559 37.4407 44.7359 37.2719 44.7493C37.1032 44.7627 36.9388 44.8092 36.7881 44.8862C36.6373 44.9631 36.5032 45.069 36.3934 45.1978C36.2836 45.3266 36.2002 45.4757 36.148 45.6367C36.0959 45.7977 36.0759 45.9674 36.0893 46.1361C36.1027 46.3048 36.1492 46.4693 36.2262 46.62C36.3031 46.7708 36.409 46.9049 36.5378 47.0147Z" fill="white"/>
</svg>
