<svg width="80" height="80" viewBox="0 0 80 80" fill="none" xmlns="http://www.w3.org/2000/svg">
<circle cx="40" cy="40" r="40" fill="#8BC067"/>
<path d="M51.4878 45.293C49.7962 45.293 48.4199 46.6696 48.4199 48.3609C48.4199 50.0526 49.7962 51.4288 51.4878 51.4288C53.1792 51.4288 54.5558 50.0526 54.5558 48.3609C54.5558 46.6696 53.1792 45.293 51.4878 45.293ZM51.4878 49.2632C50.9901 49.2632 50.5855 48.8586 50.5855 48.3609C50.5855 47.8632 50.9901 47.4586 51.4878 47.4586C51.9855 47.4586 52.3902 47.8632 52.3902 48.3609C52.3902 48.8586 51.9855 49.2632 51.4878 49.2632Z" fill="white"/>
<path d="M51.196 32.5441H45.8954C45.4965 32.5441 45.1735 32.8675 45.1735 33.266V47.3423C45.1735 47.7408 45.4965 48.0642 45.8954 48.0642H46.6609C47.0183 48.0642 47.3348 47.8068 47.381 47.4525C47.6643 45.2818 49.3957 43.9355 51.4902 43.9355C53.5846 43.9355 55.316 45.2818 55.5994 47.4525C55.6455 47.8069 55.9617 48.0642 56.3194 48.0642H57.0842C57.4826 48.0642 57.8061 47.7408 57.8061 47.3423V40.3042C57.8061 40.1346 57.7465 39.9707 57.6379 39.8411L51.7496 32.8029C51.6818 32.7219 51.5972 32.6568 51.5015 32.6121C51.4059 32.5674 51.3016 32.5442 51.196 32.5441ZM46.6172 38.319V34.7097C46.6172 34.3113 46.9402 33.9878 47.3391 33.9878H50.5189C50.7329 33.9878 50.9361 34.0832 51.0733 34.2477L54.0809 37.857C54.4725 38.3273 54.1383 39.0409 53.5262 39.0409H47.3391C46.9402 39.0409 46.6172 38.7179 46.6172 38.319ZM22.4348 48.0646H24.2831C24.6405 48.0646 24.957 47.8072 25.0032 47.4528C25.2865 45.2821 27.0179 43.9359 29.1124 43.9359C31.2068 43.9359 32.9382 45.2822 33.2216 47.4528C33.2677 47.8073 33.5839 48.0646 33.9416 48.0646H43.0079C43.4064 48.0646 43.7298 47.7411 43.7298 47.3427V29.2961C43.7298 28.8976 43.4063 28.5742 43.0079 28.5742H22.4348C22.0359 28.5742 21.7129 28.8976 21.7129 29.2961V47.3427C21.7129 47.7412 22.0359 48.0646 22.4348 48.0646Z" fill="white"/>
<path d="M29.1109 45.293C27.4192 45.293 26.043 46.6696 26.043 48.3609C26.043 50.0526 27.4192 51.4288 29.1109 51.4288C30.8022 51.4288 32.1788 50.0526 32.1788 48.3609C32.1788 46.6696 30.8022 45.293 29.1109 45.293ZM29.1109 49.2632C28.6132 49.2632 28.2086 48.8586 28.2086 48.3609C28.2086 47.8632 28.6132 47.4586 29.1109 47.4586C29.6086 47.4586 30.0132 47.8632 30.0132 48.3609C30.0132 48.8586 29.6086 49.2632 29.1109 49.2632Z" fill="white"/>
</svg>
