<svg width="20" height="20" viewBox="0 0 20 20" fill="none" xmlns="http://www.w3.org/2000/svg">
<path d="M18.3334 0H11.4062C10.9479 0 10.3074 0.265479 9.98366 0.589016L0.486366 10.0863C-0.162122 10.734 -0.162122 11.796 0.486366 12.443L7.55788 19.5143C8.2049 20.162 9.26589 20.162 9.91389 19.5135L19.4112 10.0178C19.7347 9.69427 20.0002 9.05276 20.0002 8.59549V1.66675C20.0002 0.750247 19.2499 0 18.3334 0ZM14.9999 6.66677C14.0794 6.66677 13.3331 5.91975 13.3331 5.00002C13.3331 4.07877 14.0794 3.33326 14.9999 3.33326C15.9204 3.33326 16.6669 4.07877 16.6669 5.00002C16.6669 5.91975 15.9204 6.66677 14.9999 6.66677Z" fill="#0E7DBD"/>
</svg>
