<svg width="35" height="30" viewBox="0 0 35 30" fill="none" xmlns="http://www.w3.org/2000/svg">
<path d="M17.3354 28.9977L17.3358 28.998C17.3381 28.9993 17.3405 29 17.3437 29L17.3354 28.9977ZM17.3354 28.9977C17.1872 28.9122 13.1928 26.5934 9.14748 23.1045L8.49437 23.8618M17.3354 28.9977L8.49437 23.8618M8.49437 23.8618L9.14747 23.1045C6.75372 21.04 4.86979 19.0149 3.52951 17.0904L3.5295 17.0904M8.49437 23.8618L3.5295 17.0904M3.5295 17.0904C1.79396 14.5984 0.987156 12.2947 1.00015 10.2293L3.5295 17.0904ZM3.47912 3.7038C5.07793 1.94728 7.18775 1 9.42456 1C12.284 1 14.9391 2.60255 16.4836 5.2072L17.3438 6.65772L18.2039 5.20721C19.7484 2.6026 22.4035 1 25.263 1C27.3773 1 29.4074 1.8566 30.9802 3.43934L30.9802 3.43935C32.7076 5.17764 33.7035 7.65241 33.6872 10.2296C33.6742 12.2956 32.8492 14.5997 31.1083 17.0904L31.928 17.6633L31.1083 17.0904C29.7629 19.0154 27.8806 21.0404 25.496 23.1045C21.4664 26.5923 17.5018 28.9107 17.3521 28.9977L3.47912 3.7038ZM3.47912 3.7038C1.90388 5.43447 1.01589 7.74784 1.00016 10.2293L3.47912 3.7038Z" stroke="white" stroke-width="2"/>
</svg>
