<svg width="50" height="50" viewBox="0 0 50 50" fill="none" xmlns="http://www.w3.org/2000/svg">
<rect x="1" y="1" width="48" height="48" rx="24" fill="white" stroke="#7AB751" stroke-width="2"/>
<path d="M28.1316 14.8052L29.073 13.8482C30.1856 12.7173 32.1219 12.7173 33.2344 13.8482L33.994 14.6203C34.268 14.8965 34.4855 15.2252 34.6339 15.5873C34.7823 15.9494 34.8588 16.3377 34.8588 16.73C34.8588 17.1223 34.7823 17.5107 34.6339 17.8728C34.4855 18.2349 34.268 18.5635 33.994 18.8397L33.0526 19.7967L28.1316 14.7943V14.8052ZM26.9977 15.9579L17.2521 25.8648C16.9419 26.1801 16.7493 26.5934 16.7172 27.0392L16.4284 30.2255C16.3963 30.6279 16.5353 31.0194 16.8135 31.313C17.0702 31.574 17.4019 31.7154 17.7549 31.7154H17.8726L21.007 31.4217C21.4456 31.3783 21.8521 31.1825 22.1623 30.8671L31.9079 20.9603L26.987 15.9579H26.9977ZM37 35.1844C37 34.7385 36.6363 34.3688 36.1977 34.3688H14.8023C14.3637 34.3688 14 34.7385 14 35.1844C14 35.6303 14.3637 36 14.8023 36H36.1977C36.6363 36 37 35.6303 37 35.1844Z" fill="#7AB751"/>
</svg>
