<svg width="45" height="45" viewBox="0 0 54 54" fill="none" xmlns="http://www.w3.org/2000/svg">
<circle cx="27.3334" cy="27.0026" r="26.6667" fill="#8BC067"/>
<path fill-rule="evenodd" clip-rule="evenodd" d="M22.5609 20.2296C25.7378 19.9811 28.9291 19.9811 32.106 20.2296L34.24 20.3966C35.4286 20.4896 36.401 21.3804 36.5975 22.5564C37.0891 25.4988 37.0891 28.5023 36.5975 31.4447C36.401 32.6207 35.4286 33.5115 34.24 33.6045L32.106 33.7715C28.9291 34.02 25.7378 34.02 22.5609 33.7715L20.4269 33.6045C19.2383 33.5115 18.2659 32.6207 18.0694 31.4447C17.5778 28.5023 17.5778 25.4988 18.0694 22.5564C18.2659 21.3804 19.2383 20.4896 20.4269 20.3966L22.5609 20.2296ZM25.4287 29.3531V24.648C25.4287 24.426 25.6709 24.2888 25.8614 24.403L29.7822 26.7556C29.9672 26.8665 29.9672 27.1346 29.7822 27.2456L25.8614 29.5981C25.6709 29.7123 25.4287 29.5752 25.4287 29.3531Z" fill="white"/>
</svg>
