<svg width="32" height="28" viewBox="0 0 38 33" fill="none" xmlns="http://www.w3.org/2000/svg">
<path fill-rule="evenodd" clip-rule="evenodd" d="M0.865734 0.355469C0.387599 0.355469 0 0.732496 0 1.19757C0 1.66265 0.387599 2.03968 0.865734 2.03968H3.17371C4.38683 2.03968 5.43836 2.85655 5.70663 4.00735L9.97988 22.3392C10.427 24.2572 12.1796 25.6186 14.2015 25.6186H31.457C32.2327 25.6186 32.9137 25.1168 33.1238 24.3904L35.4473 16.3555H16.4491C15.9744 16.3555 15.5897 15.9785 15.5897 15.5134C15.5897 15.0483 15.9744 14.6713 16.4491 14.6713H35.9343L37.7505 8.3905C38.0612 7.31606 37.2311 6.25021 36.0838 6.25021H8.00484L7.39523 3.63492C6.94814 1.71693 5.19558 0.355469 3.17371 0.355469H0.865734ZM16.3297 30.6713C16.3297 31.6014 15.5602 32.3555 14.6108 32.3555C13.6615 32.3555 12.8919 31.6014 12.8919 30.6713C12.8919 29.7411 13.6615 28.987 14.6108 28.987C15.5602 28.987 16.3297 29.7411 16.3297 30.6713ZM28.3622 32.3555C29.3116 32.3555 30.0811 31.6014 30.0811 30.6713C30.0811 29.7411 29.3116 28.987 28.3622 28.987C27.4128 28.987 26.6433 29.7411 26.6433 30.6713C26.6433 31.6014 27.4128 32.3555 28.3622 32.3555Z" fill="white"/>
</svg>
