<svg width="19" height="10" viewBox="0 0 19 10" fill="none" xmlns="http://www.w3.org/2000/svg">
<path d="M9.16667 10C9.05722 10.0001 8.94883 9.9786 8.84773 9.9367C8.74662 9.8948 8.65479 9.83333 8.57751 9.75583L0.244217 1.42254C-0.0814058 1.09692 -0.0814058 0.569632 0.244217 0.244217C0.569841 -0.0811975 1.09713 -0.0814058 1.42254 0.244217L9.16667 7.98834L16.9108 0.244217C17.2364 -0.0814058 17.7637 -0.0814058 18.0891 0.244217C18.4145 0.569841 18.4147 1.09713 18.0891 1.42254L9.75583 9.75583C9.67855 9.83333 9.58672 9.8948 9.48561 9.9367C9.3845 9.9786 9.27611 10.0001 9.16667 10Z" fill="white"/>
</svg>
