<svg width="20" height="18" viewBox="0 0 20 18" fill="none" xmlns="http://www.w3.org/2000/svg">
<path d="M15.8644 11.8637H7.47811C6.91112 11.8634 6.36171 11.6669 5.92321 11.3074C5.48472 10.948 5.18419 10.4478 5.07268 9.89189L3.41997 1.63651H0.818174C0.601181 1.63651 0.393075 1.55031 0.239638 1.39688C0.0862002 1.24344 0 1.03533 0 0.818341C0 0.601347 0.0862002 0.393242 0.239638 0.239804C0.393075 0.0863669 0.601181 0.000166449 0.818174 0.000166449H4.09087C4.28228 -0.00369364 4.46898 0.0596912 4.61848 0.179288C4.76797 0.298884 4.8708 0.467118 4.90905 0.654706L6.6763 9.57281C6.71455 9.76039 6.81738 9.92863 6.96687 10.0482C7.11637 10.1678 7.30307 10.2312 7.49448 10.2273H15.8644C16.0547 10.2316 16.2405 10.1694 16.3898 10.0514C16.5391 9.9334 16.6427 9.76706 16.6826 9.58099L17.9998 3.44468C18.0258 3.32385 18.0241 3.19871 17.9948 3.07864C17.9655 2.95858 17.9094 2.84671 17.8306 2.75144C17.7519 2.65618 17.6526 2.57999 17.5402 2.52859C17.4278 2.47719 17.3052 2.45193 17.1817 2.45469H16.3635C16.1465 2.45469 15.9384 2.36849 15.785 2.21505C15.6315 2.06161 15.5453 1.85351 15.5453 1.63651C15.5453 1.41952 15.6315 1.21142 15.785 1.05798C15.9384 0.904541 16.1465 0.818341 16.3635 0.818341H17.1817C17.5532 0.809764 17.9218 0.885665 18.2597 1.04032C18.5977 1.19497 18.8961 1.42434 19.1324 1.71112C19.3688 1.99791 19.5369 2.33462 19.6242 2.69586C19.7115 3.0571 19.7156 3.43344 19.6362 3.7965L18.3026 9.9328C18.1817 10.4867 17.8728 10.9817 17.4283 11.3337C16.9839 11.6857 16.4313 11.8729 15.8644 11.8637ZM8.18174 18C7.69628 18 7.22173 17.856 6.81808 17.5863C6.41444 17.3166 6.09984 16.9333 5.91406 16.4848C5.72828 16.0363 5.67968 15.5428 5.77438 15.0666C5.86909 14.5905 6.10286 14.1531 6.44613 13.8099C6.7894 13.4666 7.22676 13.2328 7.70289 13.1381C8.17902 13.0434 8.67254 13.092 9.12105 13.2778C9.56955 13.4636 9.9529 13.7782 10.2226 14.1818C10.4923 14.5855 10.6363 15.06 10.6363 15.5455C10.6363 16.1965 10.3777 16.8208 9.91735 17.2811C9.45704 17.7414 8.83272 18 8.18174 18ZM8.18174 14.7273C8.01992 14.7273 7.86174 14.7753 7.72719 14.8652C7.59264 14.9551 7.48777 15.0829 7.42585 15.2324C7.36392 15.3819 7.34772 15.5464 7.37929 15.7051C7.41086 15.8638 7.48878 16.0096 7.60321 16.124C7.71763 16.2384 7.86342 16.3164 8.02213 16.3479C8.18084 16.3795 8.34534 16.3633 8.49485 16.3014C8.64435 16.2394 8.77213 16.1346 8.86203 16C8.95193 15.8655 8.99992 15.7073 8.99992 15.5455C8.99992 15.3285 8.91372 15.1204 8.76028 14.9669C8.60684 14.8135 8.39874 14.7273 8.18174 14.7273ZM15.5453 18C15.0599 18 14.5853 17.856 14.1817 17.5863C13.778 17.3166 13.4634 16.9333 13.2776 16.4848C13.0919 16.0363 13.0432 15.5428 13.138 15.0666C13.2327 14.5905 13.4664 14.1531 13.8097 13.8099C14.153 13.4666 14.5903 13.2328 15.0665 13.1381C15.5426 13.0434 16.0361 13.092 16.4846 13.2778C16.9331 13.4636 17.3165 13.7782 17.5862 14.1818C17.8559 14.5855 17.9998 15.06 17.9998 15.5455C17.9998 16.1965 17.7412 16.8208 17.2809 17.2811C16.8206 17.7414 16.1963 18 15.5453 18ZM15.5453 14.7273C15.3835 14.7273 15.2253 14.7753 15.0908 14.8652C14.9562 14.9551 14.8513 15.0829 14.7894 15.2324C14.7275 15.3819 14.7113 15.5464 14.7429 15.7051C14.7744 15.8638 14.8524 16.0096 14.9668 16.124C15.0812 16.2384 15.227 16.3164 15.3857 16.3479C15.5444 16.3795 15.7089 16.3633 15.8584 16.3014C16.0079 16.2394 16.1357 16.1346 16.2256 16C16.3155 15.8655 16.3635 15.7073 16.3635 15.5455C16.3635 15.3285 16.2773 15.1204 16.1238 14.9669C15.9704 14.8135 15.7623 14.7273 15.5453 14.7273Z" fill="white"/>
<path d="M13.9079 5.72863H8.99884C8.78184 5.72863 8.57374 5.64243 8.4203 5.489C8.26686 5.33556 8.18066 5.12745 8.18066 4.91046C8.18066 4.69347 8.26686 4.48536 8.4203 4.33192C8.57374 4.17849 8.78184 4.09229 8.99884 4.09229H13.9079C14.1249 4.09229 14.333 4.17849 14.4864 4.33192C14.6399 4.48536 14.7261 4.69347 14.7261 4.91046C14.7261 5.12745 14.6399 5.33556 14.4864 5.489C14.333 5.64243 14.1249 5.72863 13.9079 5.72863Z" fill="white"/>
<path d="M11.4539 8.18138C11.2369 8.18138 11.0288 8.09518 10.8754 7.94174C10.7219 7.78831 10.6357 7.5802 10.6357 7.36321V2.45416C10.6357 2.23717 10.7219 2.02906 10.8754 1.87562C11.0288 1.72219 11.2369 1.63599 11.4539 1.63599C11.6709 1.63599 11.879 1.72219 12.0325 1.87562C12.1859 2.02906 12.2721 2.23717 12.2721 2.45416V7.36321C12.2721 7.5802 12.1859 7.78831 12.0325 7.94174C11.879 8.09518 11.6709 8.18138 11.4539 8.18138Z" fill="white"/>
</svg>
