<svg width="40" height="40" viewBox="0 0 60 60" fill="none" xmlns="http://www.w3.org/2000/svg">
<circle cx="30" cy="30" r="30" fill="#121212"/>
<path d="M40.0535 34.9081H25.677C24.7051 34.9076 23.7632 34.5707 23.0115 33.9545C22.2598 33.3383 21.7446 32.4808 21.5534 31.5278L18.7202 17.3758H14.26C13.888 17.3758 13.5313 17.228 13.2682 16.965C13.0052 16.7019 12.8574 16.3452 12.8574 15.9732C12.8574 15.6012 13.0052 15.2444 13.2682 14.9814C13.5313 14.7184 13.888 14.5706 14.26 14.5706H19.8703C20.1985 14.564 20.5185 14.6726 20.7748 14.8777C21.0311 15.0827 21.2074 15.3711 21.2729 15.6927L24.3025 30.9808C24.3681 31.3024 24.5444 31.5908 24.8006 31.7958C25.0569 32.0009 25.377 32.1095 25.7051 32.1029H40.0535C40.3797 32.1102 40.6982 32.0035 40.9542 31.8012C41.2102 31.599 41.3877 31.3139 41.4561 30.9949L43.7143 20.4755C43.7588 20.2683 43.7559 20.0538 43.7056 19.848C43.6554 19.6422 43.5592 19.4504 43.4242 19.2871C43.2892 19.1238 43.119 18.9931 42.9263 18.905C42.7337 18.8169 42.5235 18.7736 42.3117 18.7784H40.9091C40.5371 18.7784 40.1804 18.6306 39.9173 18.3675C39.6543 18.1045 39.5065 17.7478 39.5065 17.3758C39.5065 17.0038 39.6543 16.647 39.9173 16.384C40.1804 16.121 40.5371 15.9732 40.9091 15.9732H42.3117C42.9486 15.9585 43.5806 16.0886 44.1599 16.3537C44.7391 16.6188 45.2507 17.012 45.6559 17.5037C46.0611 17.9953 46.3493 18.5725 46.4989 19.1918C46.6485 19.8111 46.6555 20.4562 46.5195 21.0786L44.2332 31.598C44.026 32.5475 43.4965 33.3961 42.7346 33.9995C41.9726 34.6029 41.0253 34.9239 40.0535 34.9081ZM26.8833 45.4275C26.0511 45.4275 25.2375 45.1807 24.5456 44.7183C23.8536 44.256 23.3143 43.5988 22.9958 42.8299C22.6773 42.0611 22.594 41.215 22.7564 40.3988C22.9187 39.5826 23.3195 38.8328 23.9079 38.2444C24.4964 37.6559 25.2462 37.2552 26.0624 37.0928C26.8786 36.9304 27.7246 37.0138 28.4935 37.3322C29.2624 37.6507 29.9195 38.19 30.3819 38.882C30.8442 39.574 31.091 40.3875 31.091 41.2197C31.091 42.3357 30.6477 43.4059 29.8586 44.195C29.0695 44.9841 27.9992 45.4275 26.8833 45.4275ZM26.8833 39.8171C26.6059 39.8171 26.3347 39.8994 26.104 40.0535C25.8734 40.2076 25.6936 40.4267 25.5874 40.683C25.4813 40.9392 25.4535 41.2213 25.5076 41.4933C25.5618 41.7654 25.6953 42.0153 25.8915 42.2115C26.0876 42.4076 26.3376 42.5412 26.6096 42.5953C26.8817 42.6495 27.1637 42.6217 27.42 42.5155C27.6763 42.4094 27.8954 42.2296 28.0495 41.9989C28.2036 41.7683 28.2859 41.4971 28.2859 41.2197C28.2859 40.8477 28.1381 40.491 27.875 40.2279C27.612 39.9649 27.2553 39.8171 26.8833 39.8171ZM39.5065 45.4275C38.6743 45.4275 37.8608 45.1807 37.1688 44.7183C36.4769 44.256 35.9375 43.5988 35.6191 42.8299C35.3006 42.0611 35.2173 41.215 35.3796 40.3988C35.542 39.5826 35.9427 38.8328 36.5312 38.2444C37.1197 37.6559 37.8694 37.2552 38.6856 37.0928C39.5019 36.9304 40.3479 37.0138 41.1168 37.3322C41.8856 37.6507 42.5428 38.19 43.0052 38.882C43.4675 39.574 43.7143 40.3875 43.7143 41.2197C43.7143 42.3357 43.271 43.4059 42.4819 44.195C41.6928 44.9841 40.6225 45.4275 39.5065 45.4275ZM39.5065 39.8171C39.2291 39.8171 38.958 39.8994 38.7273 40.0535C38.4966 40.2076 38.3169 40.4267 38.2107 40.683C38.1046 40.9392 38.0768 41.2213 38.1309 41.4933C38.185 41.7654 38.3186 42.0153 38.5148 42.2115C38.7109 42.4076 38.9608 42.5412 39.2329 42.5953C39.505 42.6495 39.787 42.6217 40.0433 42.5155C40.2996 42.4094 40.5186 42.2296 40.6727 41.9989C40.8269 41.7683 40.9091 41.4971 40.9091 41.2197C40.9091 40.8477 40.7613 40.491 40.4983 40.2279C40.2353 39.9649 39.8785 39.8171 39.5065 39.8171Z" fill="white"/>
<path d="M36.7009 24.3911H28.2854C27.9134 24.3911 27.5567 24.2433 27.2936 23.9803C27.0306 23.7173 26.8828 23.3605 26.8828 22.9885C26.8828 22.6165 27.0306 22.2598 27.2936 21.9967C27.5567 21.7337 27.9134 21.5859 28.2854 21.5859H36.7009C37.0729 21.5859 37.4296 21.7337 37.6927 21.9967C37.9557 22.2598 38.1035 22.6165 38.1035 22.9885C38.1035 23.3605 37.9557 23.7173 37.6927 23.9803C37.4296 24.2433 37.0729 24.3911 36.7009 24.3911Z" fill="white"/>
<path d="M32.4924 28.5957C32.1204 28.5957 31.7637 28.4479 31.5007 28.1849C31.2376 27.9218 31.0898 27.5651 31.0898 27.1931V18.7776C31.0898 18.4056 31.2376 18.0488 31.5007 17.7858C31.7637 17.5228 32.1204 17.375 32.4924 17.375C32.8644 17.375 33.2212 17.5228 33.4842 17.7858C33.7472 18.0488 33.895 18.4056 33.895 18.7776V27.1931C33.895 27.5651 33.7472 27.9218 33.4842 28.1849C33.2212 28.4479 32.8644 28.5957 32.4924 28.5957Z" fill="white"/>
</svg>
