<svg width="35" height="35" viewBox="0 0 50 50" fill="none" xmlns="http://www.w3.org/2000/svg">
<path d="M25 50C11.2145 50 0 38.7855 0 25C0 11.2145 11.2145 0 25 0C38.7855 0 50 11.2145 50 25C50 38.7855 38.7855 50 25 50ZM25 3.125C12.9375 3.125 3.125 12.9375 3.125 25C3.125 37.0625 12.9375 46.875 25 46.875C37.0625 46.875 46.875 37.0625 46.875 25C46.875 12.9375 37.0625 3.125 25 3.125Z" fill="#7AB751"/>
<path d="M17.2668 34.2961C16.8667 34.2961 16.4665 34.1442 16.1624 33.8379C15.552 33.2275 15.552 32.238 16.1624 31.6276L31.6311 16.1587C32.2418 15.5483 33.2313 15.5483 33.8417 16.1587C34.452 16.769 34.452 17.7586 33.8417 18.3693L18.3727 33.8379C18.2275 33.9831 18.0551 34.0984 17.8653 34.177C17.6755 34.2556 17.4721 34.2961 17.2667 34.2961H17.2668Z" fill="#7AB751"/>
<path d="M32.7335 34.2961C32.3337 34.2961 31.9335 34.1442 31.6295 33.8379L16.1608 18.3712C15.5501 17.7608 15.5501 16.7713 16.1608 16.1609C16.7712 15.5502 17.7607 15.5502 18.3711 16.1609L33.8397 31.6296C34.4505 32.2399 34.4505 33.2295 33.8397 33.8398C33.6943 33.9848 33.5218 34.0998 33.3319 34.178C33.1421 34.2563 32.9388 34.2964 32.7335 34.2961Z" fill="#7AB751"/>
</svg>
