<svg width="50" height="50" viewBox="0 0 62 62" fill="none" xmlns="http://www.w3.org/2000/svg">
<circle cx="31" cy="31" r="31" fill="white"/>
<path d="M24.6144 26.4555C25.6081 25.3782 27.1119 24.832 29.0832 24.832H29.7916V26.8288L29.2221 26.9429C28.2516 27.1369 27.5766 27.5187 27.2154 28.079C27.0269 28.3809 26.92 28.7265 26.9051 29.082H29.0832C29.2711 29.082 29.4513 29.1567 29.5841 29.2895C29.7169 29.4223 29.7916 29.6025 29.7916 29.7904V34.7487C29.7916 35.53 29.1562 36.1654 28.3749 36.1654H24.1249C23.937 36.1654 23.7569 36.0907 23.624 35.9579C23.4912 35.8251 23.4166 35.6449 23.4166 35.457V31.9154L23.4187 29.8477C23.4123 29.7691 23.2777 27.9062 24.6144 26.4555ZM36.1666 36.1654H31.9166C31.7287 36.1654 31.5485 36.0907 31.4157 35.9579C31.2829 35.8251 31.2082 35.6449 31.2082 35.457V31.9154L31.2104 29.8477C31.204 29.7691 31.0694 27.9062 32.406 26.4555C33.3998 25.3782 34.9036 24.832 36.8749 24.832H37.5832V26.8288L37.0137 26.9429C36.0433 27.1369 35.3683 27.5187 35.007 28.079C34.8185 28.3809 34.7116 28.7265 34.6968 29.082H36.8749C37.0628 29.082 37.2429 29.1567 37.3758 29.2895C37.5086 29.4223 37.5832 29.6025 37.5832 29.7904V34.7487C37.5832 35.53 36.9479 36.1654 36.1666 36.1654Z" fill="#0A72AD"/>
</svg>
