<svg width="229" height="163" viewBox="0 0 229 163" fill="none" xmlns="http://www.w3.org/2000/svg">
<path d="M36.7461 150H191.213" stroke="#DCE8D6" stroke-width="3.17355" stroke-miterlimit="10" stroke-linejoin="round"/>
<path d="M19.1797 150H32.3775" stroke="#DCE8D6" stroke-width="3.17355" stroke-miterlimit="10" stroke-linejoin="round"/>
<path d="M38.9525 2.75779L32.0996 4.1333L37.2076 29.7706L44.0605 28.395L38.9525 2.75779Z" fill="#C9EBB5"/>
<path d="M64.1434 29.9705L59.6962 7.3332H23.8009C22.2126 7.3332 20.942 6.69553 19.989 5.73903L17.4478 2.86951C16.4948 1.91301 17.1301 0 18.7184 0H62.5551C64.1434 0 65.7317 1.27534 66.0493 2.86951L71.1319 28.3763L64.1434 29.9705Z" fill="#C9EBB5"/>
<path d="M168.652 149.533C175.494 149.533 181.041 143.966 181.041 137.099C181.041 130.231 175.494 124.664 168.652 124.664C161.81 124.664 156.264 130.231 156.264 137.099C156.264 143.966 161.81 149.533 168.652 149.533Z" fill="#8BC067"/>
<path d="M81.2988 149.533C88.1409 149.533 93.6874 143.966 93.6874 137.099C93.6874 130.231 88.1409 124.664 81.2988 124.664C74.4567 124.664 68.9102 130.231 68.9102 137.099C68.9102 143.966 74.4567 149.533 81.2988 149.533Z" fill="#8BC067"/>
<path d="M80.2217 107.668L73.373 109.065L79.1916 137.811L86.0403 136.414L80.2217 107.668Z" fill="#C9EBB5"/>
<path d="M168.336 140.606H60.9674C59.3792 140.606 57.7909 139.331 57.4732 137.736L49.8494 100.752C49.5318 98.8385 50.8024 96.9255 52.7083 96.6067C54.6143 96.2879 56.5202 97.5632 56.8379 99.4762L63.8264 133.592H168.653C170.559 133.592 172.148 135.186 172.148 137.099C172.148 139.012 170.559 140.606 168.336 140.606Z" fill="#C9EBB5"/>
<path d="M60.332 149.533C67.1741 149.533 72.7206 143.966 72.7206 137.099C72.7206 130.231 67.1741 124.664 60.332 124.664C53.4899 124.664 47.9434 130.231 47.9434 137.099C47.9434 143.966 53.4899 149.533 60.332 149.533Z" fill="#8BC067"/>
<path d="M60.3324 143.157C63.6657 143.157 66.3679 140.445 66.3679 137.099C66.3679 133.753 63.6657 131.041 60.3324 131.041C56.9991 131.041 54.2969 133.753 54.2969 137.099C54.2969 140.445 56.9991 143.157 60.3324 143.157Z" fill="#CAE7B6"/>
<path d="M147.689 149.533C154.531 149.533 160.078 143.966 160.078 137.099C160.078 130.231 154.531 124.664 147.689 124.664C140.847 124.664 135.301 130.231 135.301 137.099C135.301 143.966 140.847 149.533 147.689 149.533Z" fill="#8BC067"/>
<path d="M147.686 143.157C151.019 143.157 153.721 140.445 153.721 137.099C153.721 133.753 151.019 131.041 147.686 131.041C144.353 131.041 141.65 133.753 141.65 137.099C141.65 140.445 144.353 143.157 147.686 143.157Z" fill="#CAE7B6"/>
<g filter="url(#filter0_d_344_1094)">
<path d="M194.062 27.4199L181.038 102.346C180.085 107.129 176.273 110.317 171.508 110.317H59.6927C54.9279 110.317 51.116 107.129 50.163 102.346L35.5508 27.4199H194.062Z" fill="url(#paint0_linear_344_1094)"/>
</g>
<path d="M101.946 100.114C103.534 100.114 105.123 98.8389 105.123 96.9258V41.1298C105.123 39.5356 103.852 37.9414 101.946 37.9414C100.358 37.9414 98.7695 39.2167 98.7695 41.1298V96.9258C98.7695 98.8389 100.04 100.114 101.946 100.114Z" fill="#DEF5D4"/>
<path d="M118.142 100.114C119.73 100.433 121.319 99.1575 121.636 97.2445L127.037 41.7672C127.354 40.173 126.084 38.5788 124.178 38.26C122.589 37.9412 121.001 39.2165 120.683 41.1295L115.283 96.6068C115.283 98.5198 116.236 99.7951 118.142 100.114Z" fill="#DEF5D4"/>
<path d="M134.662 99.7953C136.25 100.114 137.839 98.8388 138.156 97.2446L148.321 42.405C148.639 40.8108 147.368 39.2167 145.78 38.8978C144.192 38.579 142.604 39.8543 142.286 41.4485L132.439 96.2881C131.803 97.8823 133.074 99.4764 134.662 99.7953Z" fill="#DEF5D4"/>
<path d="M85.4235 100.114C83.8352 100.433 82.2469 99.1575 81.9293 97.2445L76.5291 41.7672C76.2115 40.173 77.4821 38.5788 79.388 38.26C80.9763 37.9412 82.5646 39.2165 82.8823 41.1295L88.2824 96.6068C88.2824 98.5198 87.3295 99.7951 85.4235 100.114Z" fill="#DEF5D4"/>
<path d="M68.9094 99.7953C67.3212 100.114 65.7329 98.8388 65.4152 97.2446L55.2502 42.405C54.9325 40.8108 56.2031 39.2167 57.7914 38.8978C59.3797 38.579 60.968 39.8543 61.2857 41.4485L71.133 96.2881C71.7684 97.8823 70.4977 99.4764 68.9094 99.7953Z" fill="#DEF5D4"/>
<path d="M194.067 27.4187L181.043 102.345C180.09 107.127 176.278 110.316 171.513 110.316H141.971C147.371 110.316 151.818 106.49 152.771 101.388L166.43 27.4187H194.067Z" fill="#E4ECDB"/>
<defs>
<filter id="filter0_d_344_1094" x="0.64172" y="9.96539" width="228.33" height="152.715" filterUnits="userSpaceOnUse" color-interpolation-filters="sRGB">
<feFlood flood-opacity="0" result="BackgroundImageFix"/>
<feColorMatrix in="SourceAlpha" type="matrix" values="0 0 0 0 0 0 0 0 0 0 0 0 0 0 0 0 0 0 127 0" result="hardAlpha"/>
<feOffset dy="17.4545"/>
<feGaussianBlur stdDeviation="17.4545"/>
<feColorMatrix type="matrix" values="0 0 0 0 0.397708 0 0 0 0 0.47749 0 0 0 0 0.575 0 0 0 0.27 0"/>
<feBlend mode="normal" in2="BackgroundImageFix" result="effect1_dropShadow_344_1094"/>
<feBlend mode="normal" in="SourceGraphic" in2="effect1_dropShadow_344_1094" result="shape"/>
</filter>
<linearGradient id="paint0_linear_344_1094" x1="114.755" y1="25.5024" x2="114.755" y2="111.211" gradientUnits="userSpaceOnUse">
<stop stop-color="#FDFEFF"/>
<stop offset="0.9964" stop-color="#ECF0F5"/>
</linearGradient>
</defs>
</svg>
