<svg width="50" height="50" viewBox="0 0 60 60" fill="none" xmlns="http://www.w3.org/2000/svg">
<rect opacity="0.2" width="60" height="60" rx="10" fill="#8BC067"/>
<path d="M30.0312 43C29.8791 43 29.7271 42.9607 29.5909 42.882C29.4429 42.7967 25.9276 40.7556 22.3618 37.6802C20.2484 35.8575 18.5614 34.0496 17.3477 32.307C15.7772 30.0519 14.9874 27.8829 15.0002 25.8599C15.0151 23.506 15.8582 21.2923 17.3743 19.6266C18.9161 17.9328 20.9736 17 23.168 17C25.9802 17 28.5515 18.5753 30.0313 21.0709C31.5111 18.5754 34.0823 17 36.8946 17C38.9677 17 40.9457 17.8416 42.4643 19.3699C44.1309 21.047 45.0778 23.4166 45.0623 25.8711C45.0495 27.8905 44.2449 30.0563 42.6709 32.3082C41.4535 34.05 39.7688 35.857 37.6637 37.6792C34.1109 40.7543 30.6208 42.7953 30.474 42.8807C30.3395 42.9588 30.1867 43 30.0312 43Z" fill="#8BC067"/>
</svg>
