<svg width="68" height="60" viewBox="0 0 68 60" fill="none" xmlns="http://www.w3.org/2000/svg">
<g clip-path="url(#clip0_6_19)">
<path d="M14.6 1.2C13.9 3.4 10 19.9 10 20.5C10 20.8 12.4 19.8 15.3 18.3C20.5 15.5 20.5 15.5 44.3 15.2L68.1 14.9L67.4 12.7C66 7.8 63.2 4.4 59 2.2C54.9 0.0999997 53.3 -3.06267e-07 34.8 -3.06267e-07C19.8 -3.06267e-07 14.8 0.3 14.6 1.2Z" fill="white"/>
<path d="M18 19.6999C13.8 21.4999 10.3 24.5999 8.5 27.9999C7.8 29.3999 5.8 36.2999 4.1 43.4999C2.4 50.6999 0.700004 57.2999 0.400004 58.1999C-0.999996 62.9999 14.1 57.4999 18.1 51.7999C19.3 50.1999 21.7 43.0999 23.5 36.1999C28.7 15.8999 28.5 17.9999 24.8 18.0999C23 18.0999 19.9 18.7999 18 19.6999Z" fill="#0D83C8"/>
<path d="M47.6 28.4999C44.1 42.6999 44 42.1999 49.7 40.2999C56 38.0999 64.1 30.0999 66.2 23.7999C67.1 21.2999 67.6 18.8999 67.2 18.5999C66.9 18.2999 63 17.9999 58.5 17.9999H50.2L47.6 28.4999Z" fill="white"/>
<path d="M30.2 24.2C29.5 27.1 28.7 30.6 28.4 32C28.1 33.4 27.4 36 26.9 37.8C26.3 39.6 26 41.3 26.2 41.4C26.3 41.6 29.5 42.1 33.2 42.5C39.9 43.1 40 43.1 41 40.5C41.5 39.1 42.2 36.7 42.5 35.2C43.8 28.1 44.1 26.9 45 24.5C47 19.3 46.6 19 38.7 19H31.5L30.2 24.2Z" fill="#6BC140"/>
</g>
<defs>
<clipPath id="clip0_6_19">
<rect width="68" height="60" fill="white"/>
</clipPath>
</defs>
</svg>
