<svg width="20" height="20" viewBox="0 0 20 20" fill="none" xmlns="http://www.w3.org/2000/svg">
<path d="M16 0C13.796 0 12 1.796 12 4C12 6.204 13.796 8 16 8C18.204 8 20 6.204 20 4C20 1.796 18.204 0 16 0ZM17.948 3.124L15.632 5.44C15.595 5.47783 15.5508 5.50789 15.5021 5.52841C15.4533 5.54894 15.4009 5.55951 15.348 5.55951C15.2951 5.55951 15.2427 5.54894 15.1939 5.52841C15.1452 5.50789 15.101 5.47783 15.064 5.44L14.052 4.428C13.896 4.272 13.896 4.02 14.052 3.864C14.208 3.708 14.464 3.708 14.62 3.864L15.348 4.592L17.38 2.56C17.536 2.404 17.792 2.404 17.948 2.56C18.104 2.716 18.104 2.968 17.948 3.124ZM10 4H6V8.8H10V4ZM7.2 8.4C6.98 8.4 6.8 8.22 6.8 8C6.8 7.78 6.98 7.6 7.2 7.6C7.42 7.6 7.6 7.78 7.6 8C7.6 8.22 7.42 8.4 7.2 8.4ZM8.8 8.4C8.58 8.4 8.4 8.22 8.4 8C8.4 7.78 8.58 7.6 8.8 7.6C9.02 7.6 9.2 7.78 9.2 8C9.2 8.22 9.02 8.4 8.8 8.4ZM2 16H5.2V16.8H2V16Z" fill="#979796"/>
<path d="M11.2 4.00171H10.8V9.20171C10.8 9.42171 10.62 9.60171 10.4 9.60171H5.6C5.38 9.60171 5.2 9.42171 5.2 9.20171V4.00171H0.4C0.18 4.00171 0 4.18171 0 4.40171V19.6017C0 19.8217 0.18 20.0017 0.4 20.0017H15.6C15.82 20.0017 16 19.8217 16 19.6017V8.80171C13.352 8.80171 11.2 6.64971 11.2 4.00171ZM5.6 18.8017H1.6C1.38 18.8017 1.2 18.6217 1.2 18.4017C1.2 18.1817 1.38 18.0017 1.6 18.0017H5.6C5.82 18.0017 6 18.1817 6 18.4017C6 18.6217 5.82 18.8017 5.6 18.8017ZM6 17.2017C6 17.4217 5.82 17.6017 5.6 17.6017H1.6C1.38 17.6017 1.2 17.4217 1.2 17.2017V15.6017C1.2 15.3817 1.38 15.2017 1.6 15.2017H5.6C5.82 15.2017 6 15.3817 6 15.6017V17.2017Z" fill="#979796"/>
</svg>
