<svg width="80" height="80" viewBox="0 0 80 80" fill="none" xmlns="http://www.w3.org/2000/svg">
<circle cx="40" cy="40" r="40" fill="#8BC067"/>
<path fill-rule="evenodd" clip-rule="evenodd" d="M37.9785 23.1957L42.6877 25.9146L27.4201 34.7294V41.2612C27.4201 41.5222 27.5494 41.7463 27.7755 41.8768L31.3145 43.9201C31.4275 43.9853 31.5569 43.9853 31.67 43.9201C31.783 43.8548 31.8477 43.7428 31.8477 43.6123V37.2857L47.1154 28.4709L51.8246 31.1897C52.2766 31.4507 52.5355 31.8989 52.5355 32.4209V40.5914C51.257 40.1602 49.9042 39.9275 48.553 39.8451V39.2973C48.553 38.7005 48.2123 38.1654 47.6715 37.9129C47.131 37.6605 46.5018 37.7427 46.0443 38.1256L40.6235 42.6625C40.1739 43.0389 39.9281 43.5876 39.9469 44.1737C39.9657 44.7622 40.244 45.2903 40.7187 45.6386L46.1212 49.6022C46.3486 49.7699 46.6182 49.871 46.8998 49.8941C47.1814 49.9173 47.4639 49.8615 47.7156 49.7332C48.2323 49.4714 48.553 48.9494 48.553 48.3702V47.7654C49.6774 47.8995 50.7905 48.2452 51.7044 48.9069C51.8812 49.0346 52.0489 49.1744 52.2063 49.3253C52.1017 49.4479 51.9737 49.5542 51.8247 49.6402L37.9785 57.6342C37.5265 57.8952 37.0089 57.8952 36.5568 57.6342L22.7109 49.6402C22.2587 49.3792 22 48.931 22 48.4089V32.421C22 31.8989 22.2587 31.4507 22.7109 31.1898L36.5569 23.1957C37.009 22.9348 37.5265 22.9348 37.9785 23.1957ZM47.3888 46.5338C54.9917 46.5338 57.1463 53.7955 50.9014 57.0594C50.8849 57.0678 50.8722 57.0822 50.8661 57.0997C50.8599 57.1172 50.8606 57.1364 50.8682 57.1533C50.8829 57.1861 50.9177 57.2035 50.9525 57.1948C61.3281 54.6427 60.6028 40.9743 47.3888 40.9743V39.2973C47.3888 39.1527 47.31 39.0289 47.1789 38.9677C47.0479 38.9065 46.9024 38.9255 46.7915 39.0184L41.3707 43.5554C41.1935 43.7038 41.1031 43.9056 41.1105 44.1366C41.1179 44.3676 41.221 44.5633 41.4073 44.7L46.8098 48.6636C46.9232 48.7468 47.064 48.7583 47.1894 48.6948C47.3148 48.6313 47.3888 48.5108 47.3888 48.3703V46.5338Z" fill="white"/>
</svg>
