<svg width="50" height="50" viewBox="0 0 60 60" fill="none" xmlns="http://www.w3.org/2000/svg">
<rect opacity="0.2" width="60" height="60" rx="10" fill="#8BC067"/>
<path d="M18.1683 31.7355L18.1683 31.7355C19.3219 33.3919 20.9463 35.1389 23.0149 36.9229L22.3618 37.6802L23.0149 36.9229C26.2977 39.7543 29.5426 41.6945 30.0311 41.9811C30.5177 41.6935 33.7391 39.7536 37.0092 36.9231C39.0701 35.1393 40.6931 33.3923 41.8513 31.7353L42.6709 32.3082L41.8513 31.7353C43.35 29.5911 44.0511 27.6201 44.0623 25.8648C44.0762 23.6652 43.2259 21.555 41.755 20.0748L41.7549 20.0747C40.4158 18.7271 38.6899 18 36.8946 18C34.4678 18 32.2083 19.3602 30.8914 21.5809L30.0313 23.0314L29.1711 21.5809C27.8543 19.3602 25.5948 18 23.168 18C21.2687 18 19.4755 18.8038 18.1138 20.2997C16.7719 21.7741 16.0136 23.7469 16.0001 25.8662L18.1683 31.7355ZM18.1683 31.7355C16.6744 29.5904 15.9891 27.6204 16.0001 25.8663L18.1683 31.7355ZM30.0911 42.0161L30.0907 42.0159L30.0911 42.0161ZM17.3494 32.3058L17.3477 32.307L17.3494 32.3058Z" stroke="white" stroke-width="2"/>
</svg>
