<svg width="18" height="20" viewBox="0 0 18 20" fill="none" xmlns="http://www.w3.org/2000/svg">
<path d="M4.10256 4.8718C4.10256 2.18564 6.28821 0 8.97436 0C11.6605 0 13.8462 2.18564 13.8462 4.8718C13.8462 7.55795 11.6605 9.74359 8.97436 9.74359C6.28821 9.74359 4.10256 7.55795 4.10256 4.8718ZM12.0513 11.2821H5.89744C2.64615 11.2821 0 13.9282 0 17.1795C0.00054332 17.9274 0.297878 18.6445 0.826709 19.1733C1.35554 19.7021 2.07263 19.9995 2.82051 20H15.1282C15.8761 19.9995 16.5932 19.7021 17.122 19.1733C17.6508 18.6445 17.9482 17.9274 17.9487 17.1795C17.9487 13.9282 15.3026 11.2821 12.0513 11.2821Z" fill="#8BC067"/>
</svg>
