<svg width="30" height="26" viewBox="0 0 36 31" fill="none" xmlns="http://www.w3.org/2000/svg">
<path d="M17.9218 31C17.7405 31 17.5593 30.9532 17.3968 30.8594C17.2204 30.7576 13.029 28.324 8.77751 24.6572C6.25768 22.4839 4.24624 20.3284 2.7992 18.2506C0.926653 15.5619 -0.0150106 12.9757 0.000180904 10.5638C0.0179627 7.75719 1.02319 5.11779 2.83091 3.13169C4.66916 1.11213 7.12234 0 9.73871 0C13.0918 0 16.1575 1.87829 17.9219 4.85372C19.6863 1.87836 22.752 0 26.1051 0C28.5769 0 30.9352 1.00348 32.7459 2.82562C34.7329 4.82523 35.8619 7.65057 35.8435 10.5771C35.8282 12.9848 34.8689 15.5671 32.9922 18.2521C31.5407 20.3288 29.5321 22.4834 27.0221 24.656C22.7861 28.3224 18.6248 30.756 18.4497 30.8577C18.2894 30.9509 18.1073 31 17.9218 31Z" fill="white"/>
</svg>
